<svg width="16" height="16" viewBox="0 0 16 16" fill="none" xmlns="http://www.w3.org/2000/svg">
<path d="M12.5981 5.03922H9.06308L9.77047 2.91832C9.89771 2.53533 9.83346 2.11077 9.59725 1.78322C9.36103 1.45567 8.97805 1.25977 8.57427 1.25977H7.55886C7.37178 1.25977 7.19477 1.34291 7.07446 1.48653L4.11389 5.03922H2.51958C1.82479 5.03922 1.25977 5.60425 1.25977 6.29904V11.9682C1.25977 12.663 1.82479 13.228 2.51958 13.228H4.40931H10.9018C11.424 13.228 11.8977 12.8999 12.0816 12.4104L13.8183 7.77996C13.8447 7.70941 13.858 7.63445 13.858 7.55886V6.29904C13.858 5.60425 13.2929 5.03922 12.5981 5.03922ZM2.51958 6.29904H3.7794V11.9682H2.51958V6.29904ZM12.5981 7.44485L10.9018 11.9682H5.03922V5.89716L7.85366 2.51958H8.57553L7.59161 5.46945C7.52673 5.66157 7.55949 5.87259 7.67791 6.037C7.79634 6.20203 7.98657 6.29904 8.18877 6.29904H12.5981V7.44485Z" fill="#541616"/>
</svg>
