<svg width="24" height="24" viewBox="0 0 24 24" fill="none" xmlns="http://www.w3.org/2000/svg">
<path d="M8.8383 21.6072H14.7312C19.6419 21.6072 21.6062 19.6429 21.6062 14.7322V8.83936C21.6062 3.92864 19.6419 1.96436 14.7312 1.96436H8.8383C3.92759 1.96436 1.9633 3.92864 1.9633 8.83936V14.7322C1.9633 19.6429 3.92759 21.6072 8.8383 21.6072Z" stroke="#A5A4A8" stroke-width="1.17857" stroke-linecap="round" stroke-linejoin="round"/>
<path d="M8.83948 9.82164C9.92433 9.82164 10.8038 8.9422 10.8038 7.85735C10.8038 6.77251 9.92433 5.89307 8.83948 5.89307C7.75464 5.89307 6.8752 6.77251 6.8752 7.85735C6.8752 8.9422 7.75464 9.82164 8.83948 9.82164Z" stroke="#A5A4A8" stroke-width="1.17857" stroke-linecap="round" stroke-linejoin="round"/>
<path d="M2.62199 18.6116L7.46396 15.3607C8.23985 14.8401 9.35949 14.8991 10.0568 15.4982L10.3809 15.783C11.147 16.441 12.3845 16.441 13.1506 15.783L17.2363 12.2767C18.0023 11.6187 19.2399 11.6187 20.0059 12.2767L21.6068 13.6517" stroke="#A5A4A8" stroke-width="1.17857" stroke-linecap="round" stroke-linejoin="round"/>
</svg>
