<svg width="48" height="48" viewBox="0 0 48 48" fill="none" xmlns="http://www.w3.org/2000/svg">
<circle cx="24" cy="24" r="24" fill="#FDA829"/>
<path d="M20.1195 35.7162H27.5327C33.7104 35.7162 36.1815 33.4693 36.1815 27.852V21.1113C36.1815 15.494 33.7104 13.2471 27.5327 13.2471H20.1195C13.9418 13.2471 11.4707 15.494 11.4707 21.1113V27.852C11.4707 33.4693 13.9418 35.7162 20.1195 35.7162Z" stroke="#541616" stroke-width="2" stroke-linecap="round" stroke-linejoin="round"/>
<path d="M20.1195 22.2341C21.4843 22.2341 22.5906 21.2281 22.5906 19.9871C22.5906 18.7462 21.4843 17.7402 20.1195 17.7402C18.7548 17.7402 17.6484 18.7462 17.6484 19.9871C17.6484 21.2281 18.7548 22.2341 20.1195 22.2341Z" stroke="#541616" stroke-width="2" stroke-linecap="round" stroke-linejoin="round"/>
<path d="M12.2993 32.2893L18.3905 28.5707C19.3666 27.9753 20.7751 28.0427 21.6523 28.728L22.0601 29.0538C23.0238 29.8065 24.5806 29.8065 25.5443 29.0538L30.6841 25.0431C31.6479 24.2903 33.2046 24.2903 34.1684 25.0431L36.1823 26.6159" stroke="#541616" stroke-width="2" stroke-linecap="round" stroke-linejoin="round"/>
</svg>
