<svg width="82" height="42" viewBox="0 0 82 42" fill="none" xmlns="http://www.w3.org/2000/svg">
<g filter="url(#filter0_d_185_8484)">
<path d="M39.2494 1.33797C39.4311 -0.445843 42.0298 -0.445844 42.2115 1.33797V1.33797C42.3656 2.85031 44.4204 3.18648 45.0484 1.80208L45.2828 1.28527C46 -0.295796 48.385 0.515112 47.9898 2.20565V2.20565C47.6505 3.65724 49.4738 4.60111 50.4632 3.48607L51.0909 2.77867C52.1914 1.53835 54.1327 2.97127 53.2718 4.38844V4.38844C52.5209 5.6243 53.961 7.02335 55.1746 6.23714L56.0331 5.68101C57.3644 4.8186 58.776 6.65375 57.6009 7.71924V7.71924C56.5629 8.66052 57.5591 10.3489 58.8849 9.89535L59.652 9.63295C61.106 9.1356 61.9884 11.2037 60.6232 11.9092V11.9092C59.4074 12.5374 59.9549 14.3824 61.3165 14.246L79.1308 12.4606L76.8052 13.0273C72.4878 14.0793 72.8447 20.3326 77.2538 20.8865L79.8597 21.2139L61.9819 21.4369C60.6231 21.4539 60.2961 23.3397 61.5699 23.8132V23.8132C62.9974 24.3439 62.371 26.4844 60.8826 26.1618L60.276 26.0303C58.9246 25.7373 58.1539 27.518 59.2924 28.3028V28.3028C60.5752 29.187 59.4308 31.1556 58.0277 30.4785L57.1732 30.0661C55.8918 29.4477 54.6706 31.0106 55.5806 32.1044V32.1044C56.6168 33.3499 54.9367 35.0092 53.7042 33.9576L52.9256 33.2933C51.8078 32.3396 50.1634 33.5326 50.723 34.8912V34.8912C51.3698 36.4611 49.1875 37.6114 48.2578 36.1907L47.8247 35.529C46.9988 34.267 45.0349 34.9223 45.1323 36.4274V36.4274C45.2465 38.1928 42.7167 38.6148 42.2518 36.9078L42.175 36.6255C41.7742 35.1538 39.6867 35.1538 39.286 36.6255L39.2091 36.9078C38.7443 38.6148 36.2144 38.1928 36.3286 36.4274V36.4274C36.4261 34.9223 34.4621 34.267 33.6362 35.529L33.2032 36.1907C32.2734 37.6114 30.0912 36.4611 30.7379 34.8912V34.8912C31.2976 33.5326 29.6531 32.3396 28.5353 33.2933L27.7567 33.9576C26.5242 35.0092 24.8442 33.3499 25.8804 32.1044V32.1044C26.7903 31.0106 25.5692 29.4477 24.2878 30.0661L23.4332 30.4785C22.0301 31.1556 20.8857 29.187 22.1685 28.3028V28.3028C23.3071 27.518 22.5364 25.7373 21.1849 26.0303L20.5783 26.1618C19.0899 26.4844 18.4635 24.3439 19.8911 23.8132V23.8132C21.1649 23.3397 20.8378 21.4539 19.479 21.4369L1.6012 21.2139L4.20715 20.8865C8.61622 20.3326 8.97312 14.0793 4.6557 13.0273L2.3301 12.4606L20.1444 14.246C21.5061 14.3824 22.0535 12.5374 20.8377 11.9092V11.9092C19.4726 11.2037 20.3549 9.1356 21.8089 9.63295L22.576 9.89535C23.9019 10.3489 24.8981 8.66052 23.86 7.71924V7.71924C22.6849 6.65375 24.0965 4.8186 25.4278 5.68101L26.2863 6.23714C27.4999 7.02335 28.94 5.6243 28.1892 4.38844V4.38844C27.3282 2.97127 29.2695 1.53835 30.3701 2.77867L30.9978 3.48607C31.9872 4.60111 33.8104 3.65724 33.4711 2.20565V2.20565C33.0759 0.515112 35.461 -0.295798 36.1781 1.28526L36.4126 1.80207C37.0405 3.18647 39.0954 2.85031 39.2494 1.33797V1.33797Z" fill="#734A00"/>
</g>
<defs>
<filter id="filter0_d_185_8484" x="0.000717521" y="0" width="81.4595" height="41.1934" filterUnits="userSpaceOnUse" color-interpolation-filters="sRGB">
<feFlood flood-opacity="0" result="BackgroundImageFix"/>
<feColorMatrix in="SourceAlpha" type="matrix" values="0 0 0 0 0 0 0 0 0 0 0 0 0 0 0 0 0 0 127 0" result="hardAlpha"/>
<feOffset dy="1.60084"/>
<feGaussianBlur stdDeviation="0.800422"/>
<feComposite in2="hardAlpha" operator="out"/>
<feColorMatrix type="matrix" values="0 0 0 0 0 0 0 0 0 0 0 0 0 0 0 0 0 0 0.25 0"/>
<feBlend mode="normal" in2="BackgroundImageFix" result="effect1_dropShadow_185_8484"/>
<feBlend mode="normal" in="SourceGraphic" in2="effect1_dropShadow_185_8484" result="shape"/>
</filter>
</defs>
</svg>
