<svg width="100" height="51" viewBox="0 0 100 51" fill="none" xmlns="http://www.w3.org/2000/svg">
<g filter="url(#filter0_d_185_8481)">
<path d="M48.1226 1.64043C48.3454 -0.546633 51.5316 -0.546633 51.7544 1.64043V1.64043C51.9433 3.49465 54.4626 3.90681 55.2325 2.20945L55.5199 1.57582C56.3992 -0.362658 59.3235 0.631558 58.839 2.70426V2.70426C58.4229 4.48399 60.6583 5.64124 61.8714 4.27413L62.641 3.40684C63.9903 1.88612 66.3705 3.64296 65.3149 5.3805V5.3805C64.3943 6.89573 66.1599 8.61105 67.648 7.64711L68.7005 6.96527C70.3327 5.90791 72.0634 8.1579 70.6227 9.46425V9.46425C69.35 10.6183 70.5714 12.6884 72.197 12.1323L73.1375 11.8106C74.9201 11.2008 76.002 13.7364 74.3282 14.6013V14.6013C72.8376 15.3716 73.5088 17.6337 75.1783 17.4664L97.0197 15.2775L94.1684 15.9722C88.875 17.262 89.3125 24.9289 94.7183 25.6081L97.9134 26.0095L75.9941 26.283C74.3281 26.3037 73.9271 28.6159 75.4889 29.1964V29.1964C77.2391 29.8471 76.4712 32.4715 74.6463 32.0759L73.9025 31.9147C72.2456 31.5555 71.3007 33.7387 72.6966 34.7009V34.7009C74.2694 35.785 72.8663 38.1987 71.146 37.3685L70.0983 36.8629C68.5272 36.1047 67.03 38.0209 68.1456 39.3619V39.3619C69.4161 40.889 67.3563 42.9234 65.8451 41.6341L64.8905 40.8196C63.52 39.6503 61.5038 41.113 62.19 42.7787V42.7787C62.9829 44.7035 60.3074 46.1139 59.1674 44.372L58.6365 43.5607C57.6239 42.0134 55.216 42.8169 55.3354 44.6622V44.6622C55.4755 46.8267 52.3737 47.344 51.8038 45.2512L51.7095 44.905C51.2182 43.1007 48.6588 43.1007 48.1675 44.905L48.0732 45.2512C47.5033 47.344 44.4015 46.8267 44.5416 44.6622V44.6622C44.661 42.8169 42.2532 42.0134 41.2405 43.5607L40.7096 44.372C39.5696 46.1139 36.8941 44.7035 37.687 42.7787V42.7787C38.3732 41.113 36.357 39.6503 34.9866 40.8196L34.0319 41.6341C32.5208 42.9234 30.461 40.889 31.7314 39.3619V39.3619C32.847 38.0209 31.3498 36.1047 29.7788 36.8629L28.7311 37.3685C27.0107 38.1987 25.6076 35.785 27.1804 34.7009V34.7009C28.5764 33.7387 27.6315 31.5555 25.9745 31.9147L25.2308 32.0759C23.4059 32.4715 22.6379 29.8471 24.3882 29.1964V29.1964C25.9499 28.6159 25.549 26.3037 23.8829 26.283L1.96367 26.0095L5.1587 25.6081C10.5645 24.9289 11.0021 17.262 5.70866 15.9722L2.85735 15.2775L24.6988 17.4664C26.3683 17.6337 27.0394 15.3716 25.5488 14.6013V14.6013C23.875 13.7364 24.9569 11.2008 26.7396 11.8106L27.6801 12.1323C29.3056 12.6884 30.527 10.6183 29.2543 9.46426V9.46426C27.8136 8.1579 29.5443 5.90791 31.1765 6.96527L32.2291 7.6471C33.7171 8.61104 35.4827 6.89573 34.5621 5.3805V5.3805C33.5065 3.64296 35.8867 1.88612 37.2361 3.40683L38.0056 4.27412C39.2187 5.64123 41.4541 4.48399 41.0381 2.70426V2.70426C40.5536 0.631559 43.4778 -0.362662 44.3571 1.57582L44.6445 2.20945C45.4144 3.90681 47.9338 3.49465 48.1226 1.64043V1.64043Z" fill="#7D7D7D"/>
</g>
<defs>
<filter id="filter0_d_185_8481" x="0.000157475" y="0" width="99.8766" height="50.5055" filterUnits="userSpaceOnUse" color-interpolation-filters="sRGB">
<feFlood flood-opacity="0" result="BackgroundImageFix"/>
<feColorMatrix in="SourceAlpha" type="matrix" values="0 0 0 0 0 0 0 0 0 0 0 0 0 0 0 0 0 0 127 0" result="hardAlpha"/>
<feOffset dy="1.96273"/>
<feGaussianBlur stdDeviation="0.981367"/>
<feComposite in2="hardAlpha" operator="out"/>
<feColorMatrix type="matrix" values="0 0 0 0 0 0 0 0 0 0 0 0 0 0 0 0 0 0 0.25 0"/>
<feBlend mode="normal" in2="BackgroundImageFix" result="effect1_dropShadow_185_8481"/>
<feBlend mode="normal" in="SourceGraphic" in2="effect1_dropShadow_185_8481" result="shape"/>
</filter>
</defs>
</svg>
