<svg width="131" height="66" viewBox="0 0 131 66" fill="none" xmlns="http://www.w3.org/2000/svg">
<g filter="url(#filter0_d_185_8478)">
<path d="M62.7474 2.13892C63.0379 -0.712909 67.1926 -0.712907 67.483 2.13892V2.13892C67.7293 4.55674 71.0144 5.09418 72.0184 2.8809L72.3932 2.05465C73.5397 -0.473032 77.3528 0.823388 76.721 3.5261V3.5261C76.1785 5.84678 79.0934 7.35577 80.6752 5.57313L81.6786 4.44221C83.4382 2.45927 86.5418 4.75011 85.1653 7.01578V7.01578C83.965 8.99158 86.2672 11.2283 88.2075 9.97133L89.58 9.08225C91.7083 7.7035 93.9651 10.6374 92.0865 12.3408V12.3408C90.4269 13.8457 92.0195 16.5449 94.1392 15.8198L95.3656 15.4003C97.6901 14.6052 99.1008 17.9115 96.9182 19.0393V19.0393C94.9746 20.0438 95.8497 22.9934 98.0267 22.7752L126.507 19.9209L122.789 20.8269C115.887 22.5087 116.457 32.506 123.506 33.3917L127.672 33.9151L99.0905 34.2716C96.9181 34.2987 96.3952 37.3137 98.4317 38.0707V38.0707C100.714 38.919 99.7126 42.3411 97.333 41.8254L96.3632 41.6151C94.2026 41.1468 92.9705 43.9936 94.7907 45.2482V45.2482C96.8416 46.6618 95.012 49.8092 92.7688 48.7266L91.4026 48.0673C89.354 47.0787 87.4017 49.5773 88.8565 51.326V51.326C90.513 53.3172 87.8272 55.9699 85.8567 54.2887L84.6119 53.2267C82.8249 51.702 80.1958 53.6093 81.0906 55.7813V55.7813C82.1245 58.2911 78.6357 60.1302 77.1493 57.8589L76.457 56.801C75.1366 54.7834 71.9968 55.8311 72.1525 58.2373V58.2373C72.3352 61.0597 68.2906 61.7342 67.5475 59.0053L67.4246 58.5539C66.7839 56.2012 63.4466 56.2012 62.8059 58.5539L62.683 59.0053C61.9398 61.7342 57.8953 61.0597 58.0779 58.2373V58.2373C58.2337 55.8311 55.0939 54.7834 53.7735 56.801L53.0812 57.8589C51.5947 60.1302 48.1059 58.2911 49.1399 55.7813V55.7813C50.0346 53.6093 47.4056 51.702 45.6186 53.2267L44.3738 54.2887C42.4033 55.9699 39.7174 53.3172 41.374 51.326V51.326C42.8288 49.5773 40.8765 47.0787 38.8279 48.0673L37.4617 48.7266C35.2185 49.8092 33.3889 46.6618 35.4397 45.2482V45.2482C37.26 43.9936 36.0279 41.1468 33.8673 41.6151L32.8975 41.8254C30.5179 42.3411 29.5165 38.919 31.7988 38.0707V38.0707C33.8352 37.3137 33.3124 34.2987 31.14 34.2716L2.55828 33.9151L6.72446 33.3917C13.7734 32.506 14.344 22.5087 7.44159 20.8269L3.7236 19.9209L32.2038 22.7752C34.3807 22.9934 35.2559 20.0438 33.3122 19.0393V19.0393C31.1297 17.9115 32.5404 14.6052 34.8649 15.4003L36.0913 15.8198C38.2109 16.5449 39.8036 13.8457 38.144 12.3408V12.3408C36.2654 10.6374 38.5222 7.7035 40.6505 9.08225L42.023 9.97133C43.9633 11.2283 46.2655 8.99158 45.0652 7.01579V7.01579C43.6887 4.75012 46.7923 2.45928 48.5518 4.44221L49.5553 5.57313C51.1371 7.35577 54.0519 5.84679 53.5095 3.5261V3.5261C52.8777 0.823388 56.6908 -0.473031 57.8373 2.05466L58.2121 2.8809C59.216 5.09418 62.5011 4.55673 62.7474 2.13892V2.13892Z" fill="#541616"/>
</g>
<defs>
<filter id="filter0_d_185_8478" x="-0.00071764" y="0" width="130.232" height="65.8564" filterUnits="userSpaceOnUse" color-interpolation-filters="sRGB">
<feFlood flood-opacity="0" result="BackgroundImageFix"/>
<feColorMatrix in="SourceAlpha" type="matrix" values="0 0 0 0 0 0 0 0 0 0 0 0 0 0 0 0 0 0 127 0" result="hardAlpha"/>
<feOffset dy="2.55931"/>
<feGaussianBlur stdDeviation="1.27966"/>
<feComposite in2="hardAlpha" operator="out"/>
<feColorMatrix type="matrix" values="0 0 0 0 0 0 0 0 0 0 0 0 0 0 0 0 0 0 0.25 0"/>
<feBlend mode="normal" in2="BackgroundImageFix" result="effect1_dropShadow_185_8478"/>
<feBlend mode="normal" in="SourceGraphic" in2="effect1_dropShadow_185_8478" result="shape"/>
</filter>
</defs>
</svg>
