<svg width="14" height="14" viewBox="0 0 14 14" fill="none" xmlns="http://www.w3.org/2000/svg">
<path d="M3.621 0.467285H2.99032C2.10706 0.467285 1.6651 0.467285 1.32773 0.639179C1.03098 0.790381 0.789893 1.03147 0.638691 1.32822C0.466797 1.66558 0.466797 2.10754 0.466797 2.9908V10.5609C0.466797 11.4442 0.466797 11.8856 0.638691 12.2229C0.789893 12.5197 1.03098 12.7612 1.32773 12.9124C1.66477 13.0841 2.10619 13.0841 2.98772 13.0841H3.621M3.621 0.467285H10.5604C11.4437 0.467285 11.8847 0.467285 12.222 0.639179C12.5188 0.790381 12.7607 1.03147 12.9119 1.32822C13.0836 1.66525 13.0836 2.10668 13.0836 2.98821V10.5636C13.0836 11.4451 13.0836 11.8859 12.9119 12.2229C12.7607 12.5197 12.5188 12.7612 12.222 12.9124C11.885 13.0841 11.4442 13.0841 10.5627 13.0841H3.621M3.621 0.467285V13.0841M6.77521 5.98714H9.92941M6.77521 3.62149H9.92941" stroke="white" stroke-width="0.934579" stroke-linecap="round" stroke-linejoin="round"/>
</svg>
