<svg width="14" height="14" viewBox="0 0 14 14" fill="none" xmlns="http://www.w3.org/2000/svg">
<g clip-path="url(#clip0_190_5671)">
<path d="M12.3065 2.91806L8.1922 0.957981C7.28654 0.417012 6.15931 0.407413 5.24454 0.932873L1.08392 2.91806C1.0683 2.92588 1.05212 2.93425 1.03705 2.94317C0.0496858 3.50773 -0.293088 4.76582 0.271471 5.75318C0.46284 6.0879 0.744335 6.36215 1.08392 6.54476L2.23163 7.09156V9.82551C2.23231 11.048 3.02779 12.1281 4.19506 12.4914C5.00738 12.7264 5.84967 12.8415 6.69525 12.8329C7.54071 12.8423 8.383 12.7283 9.19544 12.4942C10.3627 12.1309 11.1582 11.0508 11.1589 9.82831V7.09043L12.2748 6.55702V11.159C12.2748 11.4671 12.5246 11.7169 12.8327 11.7169C13.1409 11.7169 13.3907 11.4671 13.3907 11.159V4.46358C13.3944 3.8084 12.8771 3.20314 12.3065 2.91806ZM10.0429 9.82831C10.0432 10.5595 9.56879 11.2064 8.87124 11.4257C8.16388 11.6278 7.43086 11.7259 6.69523 11.717C5.95959 11.7259 5.22658 11.6278 4.51922 11.4257C3.82166 11.2063 3.34723 10.5595 3.34752 9.82831V7.62329L5.19825 8.50487C5.6549 8.77603 6.17644 8.91852 6.70752 8.91718C7.21302 8.92077 7.71003 8.78694 8.14536 8.52997L10.0429 7.62327V9.82831ZM11.8284 5.53765L7.62032 7.54627C7.03358 7.88792 6.30632 7.87824 5.72886 7.52116L1.61173 5.56275C1.15281 5.31528 0.981395 4.74264 1.22886 4.28375C1.31256 4.12855 1.43804 3.9999 1.5911 3.91233L5.77293 1.91488C6.35985 1.57399 7.08673 1.58364 7.66439 1.93998L11.7787 3.90007C12.0813 4.06808 12.2706 4.38535 12.2747 4.73142C12.2753 5.05924 12.1065 5.36409 11.8284 5.53765Z" fill="#541616"/>
</g>
<defs>
<clipPath id="clip0_190_5671">
<rect width="13.3908" height="13.3908" fill="white"/>
</clipPath>
</defs>
</svg>
