<svg width="12" height="12" viewBox="0 0 12 12" fill="none" xmlns="http://www.w3.org/2000/svg">
<g clip-path="url(#clip0_190_5674)">
<path d="M5.57951 0C2.49806 0 0 2.49806 0 5.57951C0 8.19608 1.80151 10.3917 4.23173 10.9948V7.28461H3.08123V5.57951H4.23173V4.8448C4.23173 2.94576 5.0912 2.06554 6.95565 2.06554C7.30916 2.06554 7.91912 2.13495 8.16863 2.20413V3.74966C8.03696 3.73582 7.8082 3.7289 7.52409 3.7289C6.60927 3.7289 6.25575 4.0755 6.25575 4.97648V5.57951H8.07824L7.76512 7.28461H6.25575V11.1182C9.0185 10.7845 11.1593 8.43221 11.1593 5.57951C11.159 2.49806 8.66097 0 5.57951 0Z" fill="#541616" fill-opacity="0.5"/>
</g>
<defs>
<clipPath id="clip0_190_5674">
<rect width="11.159" height="11.159" fill="white"/>
</clipPath>
</defs>
</svg>
