<svg width="12" height="9" viewBox="0 0 12 9" fill="none" xmlns="http://www.w3.org/2000/svg">
<path d="M1.11581 1.11606L4.52358 3.68948L4.52471 3.69042C4.9031 3.96791 5.09241 4.10673 5.29976 4.16036C5.48303 4.20776 5.67568 4.20776 5.85895 4.16036C6.06648 4.10668 6.25633 3.96745 6.63539 3.68948C6.63539 3.68948 8.82117 2.01209 10.043 1.11606M0.557861 6.58409V2.34366C0.557861 1.7187 0.557861 1.40598 0.679487 1.16728C0.786473 0.957305 0.95706 0.786717 1.16703 0.679732C1.40574 0.558105 1.71845 0.558105 2.34342 0.558105H8.81565C9.44062 0.558105 9.75266 0.558105 9.99137 0.679732C10.2013 0.786717 10.3725 0.957305 10.4795 1.16728C10.601 1.40575 10.601 1.71808 10.601 2.34183V6.58598C10.601 7.20972 10.601 7.52161 10.4795 7.76008C10.3725 7.97005 10.2013 8.14093 9.99137 8.24792C9.7529 8.36943 9.44101 8.36943 8.81727 8.36943H2.34158C1.71784 8.36943 1.4055 8.36943 1.16703 8.24792C0.95706 8.14093 0.786473 7.97005 0.679487 7.76008C0.557861 7.52137 0.557861 7.20906 0.557861 6.58409Z" stroke="#541616" stroke-width="1.1159" stroke-linecap="round" stroke-linejoin="round"/>
</svg>
