<svg width="32" height="32" viewBox="0 0 32 32" fill="none" xmlns="http://www.w3.org/2000/svg">
<path fill-rule="evenodd" clip-rule="evenodd" d="M16 32C24.8366 32 32 24.8366 32 16C32 7.16344 24.8366 0 16 0C7.16344 0 0 7.16344 0 16C0 24.8366 7.16344 32 16 32Z" fill="black" fill-opacity="0.04"/>
<path d="M13 21H19M13 18H19M17.0004 7.00087C16.9048 7 16.7974 7 16.6747 7H12.2002C11.0801 7 10.5196 7 10.0918 7.21799C9.71547 7.40973 9.40973 7.71547 9.21799 8.0918C9 8.51962 9 9.08009 9 10.2002V21.8002C9 22.9203 9 23.4801 9.21799 23.9079C9.40973 24.2842 9.71547 24.5905 10.0918 24.7822C10.5192 25 11.079 25 12.1969 25L19.8031 25C20.921 25 21.48 25 21.9074 24.7822C22.2837 24.5905 22.5905 24.2842 22.7822 23.9079C23 23.4805 23 22.9215 23 21.8036V13.3257C23 13.203 22.9999 13.0955 22.999 13M17.0004 7.00087C17.2858 7.00348 17.4657 7.01407 17.6382 7.05547C17.8423 7.10446 18.0379 7.18526 18.2168 7.29492C18.4186 7.41857 18.5918 7.59181 18.9375 7.9375L22.063 11.063C22.4089 11.4089 22.5809 11.5814 22.7046 11.7832C22.8142 11.9621 22.8953 12.1573 22.9443 12.3613C22.9857 12.5338 22.9964 12.7145 22.999 13M17.0004 7.00087L17 9.80021C17 10.9203 17 11.4802 17.218 11.908C17.4097 12.2843 17.7155 12.5905 18.0918 12.7822C18.5192 13 19.079 13 20.1969 13H22.999" stroke="#541616" stroke-width="2" stroke-linecap="round" stroke-linejoin="round"/>
</svg>
