<svg width="33" height="27" viewBox="0 0 33 27" fill="none" xmlns="http://www.w3.org/2000/svg">
<path d="M1.74939 9.37578C0.676234 9.83646 0.0101314 10.6566 6.63928e-05 11.8176C-0.00686358 12.6293 0.528722 13.7194 1.60188 14.1649C2.04391 14.3488 8.25037 15.2027 8.25037 15.2027C8.25037 15.2027 9.8931 20.5132 10.4851 22.3796C10.6566 22.9196 10.7542 23.1845 11.1304 23.5372C11.7687 24.1346 12.8476 23.9473 13.3142 23.4681C14.5487 22.2024 16.5 20.25 16.5 20.25L17.3212 20.9334C17.3212 20.9334 20.9679 23.9085 22.9612 25.3091C24.1349 26.1343 24.9495 26.9949 26.2705 27C26.9433 27.0033 28.0226 26.6608 28.736 25.8255C29.2074 25.2736 29.5099 24.3911 29.6269 23.5996C29.8929 21.8025 33.0132 2.36931 33 1.68925C32.9788 0.60419 32.0863 -0.00669463 31.3445 5.53501e-05C30.8786 0.00511784 30.4946 0.143512 29.6402 0.410136C23.0313 2.47394 2.18713 9.18847 1.74939 9.37578ZM26.4 5.06254C26.4 5.06254 17.6913 12.8149 14.2113 16.3823C13.0964 17.5247 13.0177 19.4856 13.0177 19.4856L11.2189 13.5996L26.4 5.06254Z" fill="white"/>
</svg>
