<svg width="30" height="30" viewBox="0 0 30 30" fill="none" xmlns="http://www.w3.org/2000/svg">
<path d="M28 10.6667L19.3333 2L12.1531 9.53919C11.707 10.0076 11.0884 10.2727 10.4416 10.2727H6.03498C4.98209 10.2727 4.4548 11.5457 5.19931 12.2902L17.7098 24.8007C18.4543 25.5452 19.7273 25.0179 19.7273 23.965L19.7273 19.5584C19.7273 18.9116 19.9924 18.293 20.4608 17.8468L28 10.6667Z" fill="white"/>
<path d="M11.4545 18.5455L2 28M19.3333 2L28 10.6667L20.4608 17.8468C19.9924 18.293 19.7273 18.9116 19.7273 19.5584L19.7273 23.965C19.7273 25.0179 18.4543 25.5452 17.7098 24.8007L5.19931 12.2902C4.4548 11.5457 4.98209 10.2727 6.03498 10.2727H10.4416C11.0884 10.2727 11.707 10.0076 12.1531 9.53919L19.3333 2Z" stroke="white" stroke-width="4" stroke-linecap="round" stroke-linejoin="round"/>
</svg>
