<svg width="17" height="17" viewBox="0 0 17 17" fill="none" xmlns="http://www.w3.org/2000/svg">
<path d="M12.2419 15.0015C11.1406 15.6366 9.86289 16 8.5003 16C4.35816 16 1 12.6422 1 8.50002C1 4.35787 4.35786 1 8.5 1C12.6421 1 16 4.35787 16 8.50002C16 9.86262 15.6366 11.1404 15.0015 12.2416L14.999 12.2459C14.9379 12.3518 14.9071 12.4052 14.8932 12.4557C14.88 12.5034 14.8763 12.5462 14.8797 12.5955C14.8833 12.6485 14.9012 12.7034 14.9378 12.8132L15.5785 14.7352L15.5793 14.7378C15.7144 15.1433 15.782 15.3461 15.7338 15.4812C15.6918 15.599 15.5986 15.692 15.4808 15.734C15.346 15.782 15.1441 15.7148 14.7404 15.5802L14.7354 15.5783L12.8133 14.9376C12.7039 14.9011 12.6482 14.8826 12.5953 14.879C12.546 14.8757 12.5035 14.8801 12.4559 14.8933C12.4053 14.9073 12.3518 14.9381 12.2453 14.9995L12.2419 15.0015Z" stroke="#541616" stroke-width="2" stroke-linecap="round" stroke-linejoin="round"/>
</svg>
