<svg width="35" height="35" viewBox="0 0 35 35" fill="none" xmlns="http://www.w3.org/2000/svg">
<path d="M16.0415 26.2498H18.9582V23.3332H16.0415V26.2498ZM17.4998 2.9165C15.5847 2.9165 13.6884 3.29371 11.919 4.02659C10.1497 4.75948 8.54205 5.83368 7.18786 7.18786C4.45296 9.92277 2.9165 13.6321 2.9165 17.4998C2.9165 21.3676 4.45296 25.0769 7.18786 27.8118C8.54205 29.166 10.1497 30.2402 11.919 30.9731C13.6884 31.706 15.5847 32.0832 17.4998 32.0832C21.3676 32.0832 25.0769 30.5467 27.8118 27.8118C30.5467 25.0769 32.0832 21.3676 32.0832 17.4998C32.0832 15.5847 31.706 13.6884 30.9731 11.919C30.2402 10.1497 29.166 8.54205 27.8118 7.18786C26.4576 5.83368 24.85 4.75948 23.0806 4.02659C21.3113 3.29371 19.4149 2.9165 17.4998 2.9165ZM17.4998 29.1665C11.0686 29.1665 5.83317 23.9311 5.83317 17.4998C5.83317 11.0686 11.0686 5.83317 17.4998 5.83317C23.9311 5.83317 29.1665 11.0686 29.1665 17.4998C29.1665 23.9311 23.9311 29.1665 17.4998 29.1665ZM17.4998 8.74984C15.9527 8.74984 14.469 9.36442 13.375 10.4584C12.2811 11.5523 11.6665 13.0361 11.6665 14.5832H14.5832C14.5832 13.8096 14.8905 13.0678 15.4374 12.5208C15.9844 11.9738 16.7263 11.6665 17.4998 11.6665C18.2734 11.6665 19.0153 11.9738 19.5622 12.5208C20.1092 13.0678 20.4165 13.8096 20.4165 14.5832C20.4165 17.4998 16.0415 17.1353 16.0415 21.8748H18.9582C18.9582 18.5936 23.3332 18.229 23.3332 14.5832C23.3332 13.0361 22.7186 11.5523 21.6246 10.4584C20.5307 9.36442 19.0469 8.74984 17.4998 8.74984Z" fill="#EEB31A"/>
</svg>
