<svg width="35" height="36" viewBox="0 0 35 36" fill="none" xmlns="http://www.w3.org/2000/svg">
<path d="M17.5 12V24M4.375 18C4.375 19.7728 4.71449 21.5283 5.37408 23.1662C6.03367 24.8041 7.00045 26.2923 8.21922 27.5459C9.43799 28.7995 10.8849 29.7939 12.4773 30.4724C14.0697 31.1508 15.7764 31.5 17.5 31.5C19.2236 31.5 20.9303 31.1508 22.5227 30.4724C24.1151 29.7939 25.562 28.7995 26.7808 27.5459C27.9995 26.2923 28.9663 24.8041 29.6259 23.1662C30.2855 21.5283 30.625 19.7728 30.625 18C30.625 16.2272 30.2855 14.4717 29.6259 12.8338C28.9663 11.1959 27.9995 9.70765 26.7808 8.45406C25.562 7.20047 24.1151 6.20607 22.5227 5.52763C20.9303 4.84919 19.2236 4.5 17.5 4.5C15.7764 4.5 14.0697 4.84919 12.4773 5.52763C10.8849 6.20607 9.43799 7.20047 8.21922 8.45406C7.00045 9.70765 6.03367 11.1959 5.37408 12.8338C4.71449 14.4717 4.375 16.2272 4.375 18Z" stroke="#EEB31A" stroke-width="2.66667" stroke-linecap="round" stroke-linejoin="round"/>
</svg>
