<svg width="32" height="32" viewBox="0 0 32 32" fill="none" xmlns="http://www.w3.org/2000/svg">
<path d="M14.375 24H17.625V14.4H14.375V24ZM16 11.2C16.4604 11.2 16.8466 11.0464 17.1586 10.7392C17.4706 10.432 17.6261 10.0523 17.625 9.6C17.625 9.14667 17.469 8.7664 17.157 8.4592C16.845 8.152 16.4593 7.99893 16 8C15.5396 8 15.1534 8.1536 14.8414 8.4608C14.5294 8.768 14.3739 9.14773 14.375 9.6C14.375 10.0533 14.531 10.4336 14.843 10.7408C15.155 11.048 15.5407 11.2011 16 11.2ZM16 32C12.2354 31.0667 9.12733 28.9397 6.67575 25.6192C4.22417 22.2987 2.99892 18.6123 3 14.56V4.8L16 0L29 4.8V14.56C29 18.6133 27.7742 22.3003 25.3226 25.6208C22.871 28.9413 19.7635 31.0677 16 32ZM16 28.64C18.8167 27.76 21.1458 26 22.9875 23.36C24.8292 20.72 25.75 17.7867 25.75 14.56V7L16 3.4L6.25 7V14.56C6.25 17.7867 7.17083 20.72 9.0125 23.36C10.8542 26 13.1833 27.76 16 28.64Z" fill="#EEB31A"/>
</svg>
