<svg width="33" height="33" viewBox="0 0 33 33" fill="none" xmlns="http://www.w3.org/2000/svg">
<g opacity="0.52">
<path fill-rule="evenodd" clip-rule="evenodd" d="M27.2141 7.44527C28.3967 7.76298 29.3322 8.69848 29.6499 9.88108C30.2323 12.0345 30.25 16.5001 30.25 16.5001C30.25 16.5001 30.25 20.9835 29.6675 23.1192C29.3498 24.3018 28.4143 25.2373 27.2317 25.555C25.096 26.1375 16.5 26.1375 16.5 26.1375C16.5 26.1375 7.90404 26.1375 5.76829 25.555C4.58569 25.2373 3.65019 24.3018 3.33248 23.1192C2.75 20.9658 2.75 16.5001 2.75 16.5001C2.75 16.5001 2.75 12.0345 3.31483 9.89874C3.63254 8.71613 4.56804 7.78064 5.75064 7.46293C7.88639 6.88044 16.4823 6.86279 16.4823 6.86279C16.4823 6.86279 25.0783 6.86279 27.2141 7.44527ZM20.8774 16.5002L13.7465 20.6304V12.3699L20.8774 16.5002Z" fill="black"/>
</g>
</svg>
