<svg width="77" height="28" viewBox="0 0 77 28" fill="none" xmlns="http://www.w3.org/2000/svg">
<g filter="url(#filter0_d_190_2087)">
<path d="M14 6.15428C12 1.45984 5 1.95984 5 7.95987C5 13.9599 14 18.9601 14 18.9601C14 18.9601 23 13.9599 23 7.95987C23 1.95984 16 1.45984 14 6.15428Z" stroke="white" stroke-width="2" stroke-linecap="round" stroke-linejoin="round" shape-rendering="crispEdges"/>
</g>
<g filter="url(#filter1_d_190_2087)">
<path d="M34 8.86667L43.7222 0V5.06667C53.4444 6.33333 57.6111 12.6667 59 19C55.5278 14.5667 50.6667 12.54 43.7222 12.54V17.7333L34 8.86667Z" fill="white"/>
</g>
<g filter="url(#filter2_d_190_2087)">
<path d="M70 16C70 16.5523 70.4477 17 71 17C71.5523 17 72 16.5523 72 16C72 15.4477 71.5523 15 71 15C70.4477 15 70 15.4477 70 16Z" stroke="white" stroke-width="2" stroke-linecap="round" stroke-linejoin="round" shape-rendering="crispEdges"/>
<path d="M70 10C70 10.5523 70.4477 11 71 11C71.5523 11 72 10.5523 72 10C72 9.44772 71.5523 9 71 9C70.4477 9 70 9.44772 70 10Z" stroke="white" stroke-width="2" stroke-linecap="round" stroke-linejoin="round" shape-rendering="crispEdges"/>
<path d="M70 4C70 4.55228 70.4477 5 71 5C71.5523 5 72 4.55228 72 4C72 3.44772 71.5523 3 71 3C70.4477 3 70 3.44772 70 4Z" stroke="white" stroke-width="2" stroke-linecap="round" stroke-linejoin="round" shape-rendering="crispEdges"/>
</g>
<defs>
<filter id="filter0_d_190_2087" x="0" y="2" width="28" height="25.96" filterUnits="userSpaceOnUse" color-interpolation-filters="sRGB">
<feFlood flood-opacity="0" result="BackgroundImageFix"/>
<feColorMatrix in="SourceAlpha" type="matrix" values="0 0 0 0 0 0 0 0 0 0 0 0 0 0 0 0 0 0 127 0" result="hardAlpha"/>
<feOffset dy="4"/>
<feGaussianBlur stdDeviation="2"/>
<feComposite in2="hardAlpha" operator="out"/>
<feColorMatrix type="matrix" values="0 0 0 0 0 0 0 0 0 0 0 0 0 0 0 0 0 0 0.25 0"/>
<feBlend mode="normal" in2="BackgroundImageFix" result="effect1_dropShadow_190_2087"/>
<feBlend mode="normal" in="SourceGraphic" in2="effect1_dropShadow_190_2087" result="shape"/>
</filter>
<filter id="filter1_d_190_2087" x="30" y="0" width="33" height="27" filterUnits="userSpaceOnUse" color-interpolation-filters="sRGB">
<feFlood flood-opacity="0" result="BackgroundImageFix"/>
<feColorMatrix in="SourceAlpha" type="matrix" values="0 0 0 0 0 0 0 0 0 0 0 0 0 0 0 0 0 0 127 0" result="hardAlpha"/>
<feOffset dy="4"/>
<feGaussianBlur stdDeviation="2"/>
<feComposite in2="hardAlpha" operator="out"/>
<feColorMatrix type="matrix" values="0 0 0 0 0 0 0 0 0 0 0 0 0 0 0 0 0 0 0.25 0"/>
<feBlend mode="normal" in2="BackgroundImageFix" result="effect1_dropShadow_190_2087"/>
<feBlend mode="normal" in="SourceGraphic" in2="effect1_dropShadow_190_2087" result="shape"/>
</filter>
<filter id="filter2_d_190_2087" x="65" y="2" width="12" height="24" filterUnits="userSpaceOnUse" color-interpolation-filters="sRGB">
<feFlood flood-opacity="0" result="BackgroundImageFix"/>
<feColorMatrix in="SourceAlpha" type="matrix" values="0 0 0 0 0 0 0 0 0 0 0 0 0 0 0 0 0 0 127 0" result="hardAlpha"/>
<feOffset dy="4"/>
<feGaussianBlur stdDeviation="2"/>
<feComposite in2="hardAlpha" operator="out"/>
<feColorMatrix type="matrix" values="0 0 0 0 0 0 0 0 0 0 0 0 0 0 0 0 0 0 0.25 0"/>
<feBlend mode="normal" in2="BackgroundImageFix" result="effect1_dropShadow_190_2087"/>
<feBlend mode="normal" in="SourceGraphic" in2="effect1_dropShadow_190_2087" result="shape"/>
</filter>
</defs>
</svg>
