<svg width="20" height="18" viewBox="0 0 20 18" fill="none" xmlns="http://www.w3.org/2000/svg">
<path d="M2.31385 12.1998C1.39666 13.775 0.938192 14.5629 1.0067 15.2092C1.06645 15.7729 1.36484 16.285 1.82731 16.6182C2.35735 17 3.27398 17 5.10712 17H14.8929C16.726 17 17.6425 17 18.1725 16.6182C18.635 16.285 18.9335 15.7729 18.9933 15.2092C19.0618 14.5629 18.6035 13.775 17.6863 12.1998L12.7951 3.79985C11.8779 2.22468 11.4191 1.43722 10.8204 1.17291C10.2982 0.942364 9.70148 0.942364 9.17925 1.17291C8.58077 1.43711 8.12225 2.22457 7.20581 3.79844L2.31385 12.1998Z" fill="#F0AD48"/>
<path d="M10 6.00004V10M2.31385 12.1998C1.39666 13.775 0.938192 14.5629 1.0067 15.2092C1.06645 15.7729 1.36484 16.285 1.82731 16.6182C2.35735 17 3.27398 17 5.10712 17H14.8929C16.726 17 17.6425 17 18.1725 16.6182C18.635 16.285 18.9335 15.7729 18.9933 15.2092C19.0618 14.5629 18.6035 13.775 17.6863 12.1998L12.7951 3.79985C11.8779 2.22468 11.4191 1.43722 10.8204 1.17291C10.2982 0.942364 9.70148 0.942364 9.17925 1.17291C8.58077 1.43711 8.12225 2.22457 7.20581 3.79844L2.31385 12.1998ZM10.0512 13V13.1L9.94977 13.1002V13H10.0512Z" stroke="#541616" stroke-width="2" stroke-linecap="round" stroke-linejoin="round"/>
</svg>
