<svg width="40" height="41" viewBox="0 0 40 41" fill="none" xmlns="http://www.w3.org/2000/svg">
<path fill-rule="evenodd" clip-rule="evenodd" d="M20 40.4433C31.0457 40.4433 40 31.3898 40 20.2217C40 9.05355 31.0457 0 20 0C8.9543 0 0 9.05355 0 20.2217C0 31.3898 8.9543 40.4433 20 40.4433Z" fill="black" fill-opacity="0.04"/>
<path fill-rule="evenodd" clip-rule="evenodd" d="M20.0682 22.2434C23.9468 22.2434 26.7044 24.3556 27.4262 27.4618L27.4723 27.6751C27.6207 28.4156 27.158 29.1399 26.4386 29.2927C26.3502 29.3115 26.2601 29.3209 26.1698 29.3209H13.8502C13.1045 29.3209 12.5 28.6986 12.5 27.9309C12.5 27.8549 12.5061 27.779 12.5181 27.7041L12.5406 27.5926C13.2898 24.5192 16.1014 22.2434 20.0682 22.2434ZM24.1564 12.4778C25.1542 14.1982 25.3394 16.2996 24.712 18.782C24.6665 19.0398 24.8308 19.2467 25.205 19.4028L25.254 19.4215L25.3154 19.4419C25.4541 19.4854 25.5313 19.6333 25.4879 19.7723C25.4756 19.8118 25.4543 19.8475 25.426 19.8768L25.3786 19.9157C24.7609 20.3115 22.9785 20.3408 21.9444 20.1357C21.2609 20.8668 20.5139 21.2323 19.7032 21.2323C18.8926 21.2323 18.1373 20.8668 17.4373 20.1357C15.4791 19.9791 14.5 18.5088 14.5 15.7247C14.5 13.176 15.5217 11.5008 17.565 10.6993C17.9173 10.5612 18.3041 10.5379 18.6703 10.6329L18.9415 10.7032C20.838 9.51816 22.5763 10.1097 24.1564 12.4778Z" fill="#541616"/>
</svg>
