<svg width="40" height="41" viewBox="0 0 40 41" fill="none" xmlns="http://www.w3.org/2000/svg">
<path fill-rule="evenodd" clip-rule="evenodd" d="M20 40.4433C31.0457 40.4433 40 31.3898 40 20.2217C40 9.05355 31.0457 0 20 0C8.9543 0 0 9.05355 0 20.2217C0 31.3898 8.9543 40.4433 20 40.4433Z" fill="black" fill-opacity="0.04"/>
<path fill-rule="evenodd" clip-rule="evenodd" d="M22.25 28.0576C22.25 29.314 21.2426 30.3325 20 30.3325C18.8071 30.3325 17.831 29.3938 17.7548 28.2071L17.75 28.0576H22.25ZM19.9917 10.8691C23.3021 10.8691 25.4033 13.1947 25.9858 16.9303L26.7902 22.8305V22.8305C27.3567 25.0137 28.5 24.2683 28.5 25.4655C28.5 26.2274 27.7534 26.5844 26.2602 26.5367L26.0418 26.5271H13.9582L13.7398 26.5367C12.2466 26.5844 11.5 26.2274 11.5 25.4655C11.5 24.311 12.5631 24.963 13.1469 23.0534L13.2098 22.8305C13.2098 22.8305 13.834 18.3842 14.0142 16.9303C14.5818 13.2905 16.5911 10.9893 19.7561 10.8737L19.9917 10.8691Z" fill="#541616"/>
</svg>
