<svg width="39" height="39" viewBox="0 0 39 39" fill="none" xmlns="http://www.w3.org/2000/svg">
<path d="M16.7501 22.2499L24.6251 14.3749M32.6809 9.56897L26.0336 31.1727C25.4378 33.1087 25.1398 34.0773 24.626 34.3983C24.1803 34.6767 23.6285 34.7233 23.1432 34.5219C22.5835 34.2897 22.1292 33.3827 21.223 31.5704L17.0128 23.1498C16.8689 22.8622 16.797 22.719 16.7009 22.5944C16.6157 22.4838 16.5173 22.3842 16.4067 22.2989C16.285 22.205 16.1442 22.1347 15.8694 21.9973L7.42938 17.7773C5.617 16.8711 4.71074 16.4176 4.47851 15.8579C4.27711 15.3725 4.32304 14.8202 4.6015 14.3746C4.92257 13.8607 5.891 13.5622 7.82769 12.9663L29.4314 6.31897C30.954 5.85049 31.7155 5.61644 32.2298 5.80524C32.6778 5.96969 33.0309 6.3225 33.1954 6.77045C33.3841 7.28448 33.1498 8.04568 32.6818 9.56672L32.6809 9.56897Z" stroke="#832C2C" stroke-width="2" stroke-linecap="round" stroke-linejoin="round"/>
</svg>
