<svg width="26" height="26" viewBox="0 0 26 26" fill="none" xmlns="http://www.w3.org/2000/svg">
<path d="M10.8105 2.74316C15.2701 2.7433 18.877 6.35095 18.877 10.8105C18.8769 12.661 18.2449 14.3644 17.1904 15.7266L23.2656 21.8018L22.917 22.1553L22.1602 22.9229L21.8066 23.2812L21.4502 22.9258L15.7256 17.2002C14.3641 18.2454 12.661 18.8769 10.8105 18.877C6.35095 18.877 2.7433 15.2701 2.74316 10.8105C2.74316 6.35087 6.35087 2.74316 10.8105 2.74316ZM10.8105 4.82422C7.50852 4.82422 4.82422 7.50852 4.82422 10.8105C4.82436 14.1125 7.50861 16.7969 10.8105 16.7969C14.1124 16.7967 16.7967 14.1124 16.7969 10.8105C16.7969 7.50861 14.1125 4.82436 10.8105 4.82422Z" fill="#541616" stroke="#541616"/>
</svg>
