<svg width="25" height="25" viewBox="0 0 25 25" fill="none" xmlns="http://www.w3.org/2000/svg">
<path d="M23 9L16 2L10.2006 8.08934C9.84029 8.46769 9.34065 8.68182 8.81818 8.68182H5.25902C4.40861 8.68182 3.98272 9.71 4.58405 10.3113L14.6887 20.416C15.29 21.0173 16.3182 20.5914 16.3182 19.741L16.3182 16.1818C16.3182 15.6593 16.5323 15.1597 16.9107 14.7994L23 9Z" fill="#541616"/>
<path d="M9.63636 15.3636L2 23M16 2L23 9L16.9107 14.7994C16.5323 15.1597 16.3182 15.6593 16.3182 16.1818L16.3182 19.741C16.3182 20.5914 15.29 21.0173 14.6887 20.416L4.58405 10.3113C3.98272 9.71 4.40861 8.68182 5.25902 8.68182H8.81818C9.34065 8.68182 9.84029 8.46769 10.2006 8.08934L16 2Z" stroke="#541616" stroke-width="4" stroke-linecap="round" stroke-linejoin="round"/>
</svg>
