<svg width="33" height="30" viewBox="0 0 33 30" fill="none" xmlns="http://www.w3.org/2000/svg">
<path d="M3.68973 20.3997C2.16107 23.0578 1.39696 24.3874 1.51113 25.478C1.61072 26.4292 2.10803 27.2934 2.87883 27.8557C3.76222 28.5 5.28993 28.5 8.34517 28.5H24.6548C27.71 28.5 29.2375 28.5 30.1209 27.8557C30.8917 27.2934 31.3892 26.4292 31.4888 25.478C31.603 24.3874 30.8391 23.0578 29.3104 20.3997L21.1585 6.22475C19.6299 3.56664 18.8652 2.23781 17.8673 1.79178C16.9969 1.40274 16.0024 1.40274 15.132 1.79178C14.1346 2.23762 13.3704 3.56646 11.843 6.22236L3.68973 20.3997Z" fill="white"/>
<path d="M16.5 9.93757V16.6875M3.68973 20.3997C2.16107 23.0578 1.39696 24.3874 1.51113 25.478C1.61072 26.4292 2.10803 27.2934 2.87883 27.8557C3.76222 28.5 5.28993 28.5 8.34517 28.5H24.6548C27.71 28.5 29.2375 28.5 30.1209 27.8557C30.8917 27.2934 31.3892 26.4292 31.4888 25.478C31.603 24.3874 30.8391 23.0578 29.3104 20.3997L21.1585 6.22475C19.6299 3.56664 18.8652 2.23781 17.8673 1.79178C16.9969 1.40274 16.0024 1.40274 15.132 1.79178C14.1346 2.23762 13.3704 3.56646 11.843 6.22236L3.68973 20.3997ZM16.5853 21.75V21.9188L16.4163 21.9191V21.75H16.5853Z" stroke="#541616" stroke-width="3" stroke-linecap="round" stroke-linejoin="round"/>
</svg>
