<svg width="211" height="234" viewBox="0 0 211 234" fill="none" xmlns="http://www.w3.org/2000/svg">
<g filter="url(#filter0_d_190_2092)">
<path d="M7.19995 13.4792C7.19995 9.4591 10.7817 6.2002 15.2 6.2002H185.2C189.618 6.2002 193.2 9.4591 193.2 13.4792V196.363C193.2 200.383 189.618 203.642 185.2 203.642H15.2C10.7817 203.642 7.19995 200.383 7.19995 196.363V13.4792Z" fill="#FDA829"/>
<path d="M95.6544 193.791C94.2365 193.437 92.77 194.157 92.1819 195.495L85.1961 211.385C84.1092 213.857 86.5869 216.394 89.0843 215.367L115.757 204.388C118.435 203.285 118.152 199.404 115.342 198.703L95.6544 193.791Z" fill="#FDA829"/>
</g>
<defs>
<filter id="filter0_d_190_2092" x="-4.86374e-05" y="0.000195503" width="210.4" height="233.801" filterUnits="userSpaceOnUse" color-interpolation-filters="sRGB">
<feFlood flood-opacity="0" result="BackgroundImageFix"/>
<feColorMatrix in="SourceAlpha" type="matrix" values="0 0 0 0 0 0 0 0 0 0 0 0 0 0 0 0 0 0 127 0" result="hardAlpha"/>
<feOffset dx="5" dy="6"/>
<feGaussianBlur stdDeviation="6.1"/>
<feComposite in2="hardAlpha" operator="out"/>
<feColorMatrix type="matrix" values="0 0 0 0 0 0 0 0 0 0 0 0 0 0 0 0 0 0 0.25 0"/>
<feBlend mode="normal" in2="BackgroundImageFix" result="effect1_dropShadow_190_2092"/>
<feBlend mode="normal" in="SourceGraphic" in2="effect1_dropShadow_190_2092" result="shape"/>
</filter>
</defs>
</svg>
