<svg width="15" height="15" viewBox="0 0 15 15" fill="none" xmlns="http://www.w3.org/2000/svg">
<path d="M10.3547 12.6679C9.43188 13.2001 8.36118 13.5046 7.21937 13.5046C3.74837 13.5046 0.934325 10.6909 0.934325 7.21987C0.934325 3.74886 3.74812 0.935059 7.21912 0.935059C10.6901 0.935059 13.5039 3.74886 13.5039 7.21987C13.5039 8.36169 13.1994 9.43239 12.6672 10.3552L12.6651 10.3588C12.6139 10.4476 12.5881 10.4923 12.5764 10.5347C12.5654 10.5746 12.5623 10.6104 12.5651 10.6518C12.5682 10.6961 12.5831 10.7422 12.6138 10.8342L13.1507 12.4448L13.1513 12.4469C13.2646 12.7868 13.3212 12.9567 13.2809 13.0699C13.2457 13.1686 13.1675 13.2465 13.0688 13.2817C12.9559 13.322 12.7867 13.2656 12.4484 13.1528L12.4442 13.1513L10.8335 12.6144C10.7418 12.5838 10.6952 12.5683 10.6509 12.5653C10.6096 12.5625 10.574 12.5662 10.534 12.5772C10.4916 12.589 10.4468 12.6148 10.3576 12.6663L10.3547 12.6679Z" stroke="#541616" stroke-width="1.86971" stroke-linecap="round" stroke-linejoin="round"/>
</svg>
