<svg width="16" height="13" viewBox="0 0 16 13" fill="none" xmlns="http://www.w3.org/2000/svg">
<path d="M6.58103 6.97673L10.1676 4.09498M13.8365 2.33631L10.8091 10.2419C10.5378 10.9503 10.402 11.3048 10.168 11.4222C9.96504 11.5241 9.71374 11.5412 9.49268 11.4675C9.23778 11.3825 9.0309 11.0506 8.61819 10.3874L6.70064 7.30601C6.63515 7.20077 6.60237 7.14836 6.55862 7.10276C6.5198 7.0623 6.475 7.02584 6.42464 6.99465C6.36917 6.9603 6.30505 6.93454 6.1799 6.88427L2.33598 5.34002C1.51055 5.00842 1.0978 4.84246 0.992029 4.63766C0.900304 4.46004 0.921222 4.25794 1.04804 4.09485C1.19427 3.90681 1.63534 3.79756 2.51739 3.5795L12.3566 1.14702C13.05 0.975585 13.3969 0.889936 13.6311 0.959025C13.8351 1.0192 13.996 1.14831 14.0709 1.31223C14.1568 1.50033 14.0501 1.77888 13.837 2.33549L13.8365 2.33631Z" stroke="#541616" stroke-width="1.86971" stroke-linecap="round" stroke-linejoin="round"/>
</svg>
