<svg width="25" height="25" viewBox="0 0 25 25" fill="none" xmlns="http://www.w3.org/2000/svg">
<circle cx="12.2622" cy="12.2622" r="12.2622" fill="#EEB31A"/>
<path d="M10.2795 18.2481H14.0671C17.2234 18.2481 18.486 17.1001 18.486 14.2301V10.7861C18.486 7.91607 17.2234 6.76807 14.0671 6.76807H10.2795C7.12313 6.76807 5.8606 7.91607 5.8606 10.7861V14.2301C5.8606 17.1001 7.12313 18.2481 10.2795 18.2481Z" stroke="black" stroke-width="1.02185" stroke-linecap="round" stroke-linejoin="round"/>
<path d="M10.2791 11.36C10.9764 11.36 11.5417 10.846 11.5417 10.212C11.5417 9.57794 10.9764 9.06396 10.2791 9.06396C9.58186 9.06396 9.0166 9.57794 9.0166 10.212C9.0166 10.846 9.58186 11.36 10.2791 11.36Z" stroke="black" stroke-width="1.02185" stroke-linecap="round" stroke-linejoin="round"/>
<path d="M6.28369 16.4976L9.39584 14.5976C9.89455 14.2934 10.6142 14.3279 11.0624 14.678L11.2707 14.8445C11.7631 15.229 12.5585 15.229 13.0509 14.8445L15.677 12.7953C16.1693 12.4107 16.9647 12.4107 17.4571 12.7953L18.4861 13.5989" stroke="black" stroke-width="1.02185" stroke-linecap="round" stroke-linejoin="round"/>
</svg>
