<svg width="14" height="14" viewBox="0 0 14 14" fill="none" xmlns="http://www.w3.org/2000/svg">
<g clip-path="url(#clip0_190_5670)">
<path d="M12.8329 12.2749H12.2749V7.81129C12.274 7.07167 11.9798 6.3626 11.4569 5.83961C10.9339 5.31663 10.2248 5.02242 9.48517 5.02153H7.25337V3.36944C7.50192 3.26096 7.71346 3.08238 7.86211 2.85555C8.01075 2.62872 8.09005 2.36348 8.0903 2.09229C7.93957 1.3791 7.60004 0.719496 7.10719 0.182422C7.05491 0.125248 6.9913 0.0795881 6.9204 0.048349C6.84951 0.0171099 6.77289 0.000976563 6.69542 0.000976562C6.61795 0.000976563 6.54132 0.0171099 6.47043 0.048349C6.39954 0.0795881 6.33593 0.125248 6.28365 0.182422C5.7908 0.719496 5.45126 1.3791 5.30054 2.09229C5.30079 2.36348 5.38008 2.62872 5.52873 2.85555C5.67737 3.08238 5.88891 3.26096 6.13747 3.36944V5.02153H3.90566C3.16604 5.02242 2.45697 5.31663 1.93398 5.83961C1.41099 6.3626 1.11679 7.07167 1.1159 7.81129V12.2749H0.557951C0.409974 12.2749 0.268056 12.3337 0.16342 12.4383C0.058784 12.543 0 12.6849 0 12.8329C0 12.9808 0.058784 13.1228 0.16342 13.2274C0.268056 13.332 0.409974 13.3908 0.557951 13.3908H12.8329C12.9809 13.3908 13.1228 13.332 13.2274 13.2274C13.3321 13.1228 13.3908 12.9808 13.3908 12.8329C13.3908 12.6849 13.3321 12.543 13.2274 12.4383C13.1228 12.3337 12.9809 12.2749 12.8329 12.2749ZM3.90566 6.13744H9.48517C9.92911 6.13744 10.3549 6.31379 10.6688 6.6277C10.9827 6.94161 11.159 7.36736 11.159 7.81129V8.91604C10.6368 8.86024 10.3221 8.52547 10.3221 8.36924C10.3221 8.22127 10.2633 8.07935 10.1587 7.97471C10.054 7.87008 9.91213 7.81129 9.76415 7.81129C9.61617 7.81129 9.47425 7.87008 9.36962 7.97471C9.26498 8.07935 9.2062 8.22127 9.2062 8.36924C9.2062 8.56062 8.82568 8.9272 8.22978 8.9272C7.62217 8.9272 7.25337 8.53998 7.25337 8.36924C7.25337 8.22127 7.19458 8.07935 7.08995 7.97471C6.98531 7.87008 6.8434 7.81129 6.69542 7.81129C6.54744 7.81129 6.40552 7.87008 6.30089 7.97471C6.19625 8.07935 6.13747 8.22127 6.13747 8.36924C6.13747 8.56062 5.75694 8.9272 5.16105 8.9272C4.55344 8.9272 4.18464 8.53998 4.18464 8.36924C4.18464 8.22127 4.12585 8.07935 4.02122 7.97471C3.91658 7.87008 3.77466 7.81129 3.62668 7.81129C3.47871 7.81129 3.33679 7.87008 3.23215 7.97471C3.12752 8.07935 3.06873 8.22127 3.06873 8.36924C3.06873 8.545 2.74568 8.8647 2.23181 8.91659V7.81129C2.23181 7.36736 2.40816 6.94161 2.72207 6.6277C3.03597 6.31379 3.46173 6.13744 3.90566 6.13744ZM2.23181 10.0314C2.74439 10.0086 3.23496 9.81653 3.62668 9.48515C4.05707 9.84391 4.59924 10.0411 5.15954 10.0426C5.71984 10.0441 6.26308 9.84992 6.69542 9.49352C7.12775 9.84992 7.67099 10.0441 8.23129 10.0426C8.79159 10.0411 9.33377 9.84391 9.76415 9.48515C10.1559 9.81633 10.6465 10.0082 11.159 10.0308V12.2749H2.23181V10.0314Z" fill="#541616"/>
</g>
<defs>
<clipPath id="clip0_190_5670">
<rect width="13.3908" height="13.3908" fill="white"/>
</clipPath>
</defs>
</svg>
