<svg width="12" height="12" viewBox="0 0 12 12" fill="none" xmlns="http://www.w3.org/2000/svg">
<g clip-path="url(#clip0_190_5675)">
<path d="M5.57951 1.00475C7.07029 1.00475 7.24683 1.01129 7.83312 1.03744C8.37799 1.06142 8.67222 1.15295 8.86838 1.22924C9.12774 1.32949 9.31517 1.45155 9.50915 1.64552C9.7053 1.84168 9.82518 2.02693 9.92543 2.28629C10.0017 2.48245 10.0933 2.77886 10.1172 3.32155C10.1434 3.91002 10.1499 4.08656 10.1499 5.57516C10.1499 7.06593 10.1434 7.24247 10.1172 7.82876C10.0933 8.37363 10.0017 8.66786 9.92543 8.86402C9.82518 9.12338 9.70312 9.31081 9.50915 9.50479C9.31299 9.70094 9.12774 9.82082 8.86838 9.92107C8.67222 9.99736 8.37581 10.0889 7.83312 10.1129C7.24465 10.139 7.06811 10.1456 5.57951 10.1456C4.08874 10.1456 3.9122 10.139 3.32591 10.1129C2.78104 10.0889 2.48681 9.99736 2.29065 9.92107C2.03129 9.82082 1.84386 9.69877 1.64988 9.50479C1.45373 9.30864 1.33385 9.12338 1.2336 8.86402C1.15731 8.66786 1.06577 8.37145 1.0418 7.82876C1.01565 7.24029 1.00911 7.06375 1.00911 5.57516C1.00911 4.08438 1.01565 3.90784 1.0418 3.32155C1.06577 2.77668 1.15731 2.48245 1.2336 2.28629C1.33385 2.02693 1.4559 1.8395 1.64988 1.64552C1.84603 1.44937 2.03129 1.32949 2.29065 1.22924C2.48681 1.15295 2.78322 1.06142 3.32591 1.03744C3.9122 1.01129 4.08874 1.00475 5.57951 1.00475ZM5.57951 0C4.06476 0 3.87515 0.00653849 3.28014 0.0326925C2.68732 0.0588464 2.27975 0.154744 1.92668 0.292053C1.55834 0.4359 1.24667 0.625516 0.937184 0.937184C0.625516 1.24667 0.4359 1.55834 0.292053 1.9245C0.154744 2.27975 0.0588465 2.68514 0.0326925 3.27796C0.00653849 3.87515 0 4.06476 0 5.57951C0 7.09427 0.00653849 7.28388 0.0326925 7.87888C0.0588465 8.47171 0.154744 8.87927 0.292053 9.23235C0.4359 9.60069 0.625516 9.91236 0.937184 10.2218C1.24667 10.5313 1.55834 10.7231 1.9245 10.8648C2.27976 11.0021 2.68514 11.098 3.27797 11.1242C3.87297 11.1503 4.06258 11.1568 5.57734 11.1568C7.09209 11.1568 7.2817 11.1503 7.87671 11.1242C8.46953 11.098 8.8771 11.0021 9.23018 10.8648C9.59633 10.7231 9.908 10.5313 10.2175 10.2218C10.527 9.91236 10.7188 9.60069 10.8604 9.23453C10.9977 8.87927 11.0936 8.47389 11.1198 7.88106C11.146 7.28606 11.1525 7.09645 11.1525 5.58169C11.1525 4.06694 11.146 3.87733 11.1198 3.28232C11.0936 2.6895 10.9977 2.28193 10.8604 1.92886C10.7231 1.55834 10.5335 1.24667 10.2218 0.937184C9.91236 0.627695 9.60069 0.4359 9.23453 0.294232C8.87928 0.156924 8.47389 0.0610259 7.88106 0.034872C7.28388 0.0065385 7.09427 0 5.57951 0Z" fill="#541616" fill-opacity="0.5"/>
<path d="M5.57942 2.71338C3.9971 2.71338 2.71338 3.9971 2.71338 5.57942C2.71338 7.16173 3.9971 8.44546 5.57942 8.44546C7.16173 8.44546 8.44546 7.16173 8.44546 5.57942C8.44546 3.9971 7.16173 2.71338 5.57942 2.71338ZM5.57942 7.43853C4.55288 7.43853 3.72031 6.60596 3.72031 5.57942C3.72031 4.55288 4.55288 3.72031 5.57942 3.72031C6.60596 3.72031 7.43853 4.55288 7.43853 5.57942C7.43853 6.60596 6.60596 7.43853 5.57942 7.43853Z" fill="#541616" fill-opacity="0.5"/>
<path d="M9.2281 2.60026C9.2281 2.97077 8.92733 3.26937 8.559 3.26937C8.18848 3.26937 7.88989 2.96859 7.88989 2.60026C7.88989 2.22974 8.19066 1.93115 8.559 1.93115C8.92733 1.93115 9.2281 2.23192 9.2281 2.60026Z" fill="#541616" fill-opacity="0.5"/>
</g>
<defs>
<clipPath id="clip0_190_5675">
<rect width="11.159" height="11.159" fill="white"/>
</clipPath>
</defs>
</svg>
