<svg width="12" height="12" viewBox="0 0 12 12" fill="none" xmlns="http://www.w3.org/2000/svg">
<g clip-path="url(#clip0_190_5676)">
<path fill-rule="evenodd" clip-rule="evenodd" d="M5.58413 0C2.49625 0 0 2.51465 0 5.62562C0 8.11239 1.59943 10.2174 3.81827 10.9624C4.09568 11.0184 4.1973 10.8414 4.1973 10.6924C4.1973 10.562 4.18816 10.115 4.18816 9.64918C2.63479 9.98455 2.31131 8.97857 2.31131 8.97857C2.06167 8.32659 1.69179 8.15902 1.69179 8.15902C1.18337 7.8144 1.72882 7.8144 1.72882 7.8144C2.29279 7.85166 2.58872 8.39186 2.58872 8.39186C3.08788 9.24867 3.89223 9.00657 4.21582 8.85752C4.26199 8.49427 4.41002 8.24281 4.56718 8.10313C3.32826 7.97271 2.02475 7.48841 2.02475 5.32752C2.02475 4.7128 2.2465 4.20987 2.59787 3.81873C2.54243 3.67905 2.34823 3.10148 2.65342 2.32845C2.65342 2.32845 3.12491 2.1794 4.18804 2.90591C4.6432 2.78277 5.11261 2.72013 5.58413 2.7196C6.05563 2.7196 6.53627 2.78486 6.98011 2.90591C8.04335 2.1794 8.51485 2.32845 8.51485 2.32845C8.82003 3.10148 8.62572 3.67905 8.57028 3.81873C8.93091 4.20987 9.14351 4.7128 9.14351 5.32752C9.14351 7.48841 7.84 7.96334 6.59182 8.10313C6.79528 8.28007 6.97085 8.61532 6.97085 9.14625C6.97085 9.90065 6.9617 10.5061 6.9617 10.6923C6.9617 10.8414 7.06343 11.0184 7.34073 10.9625C9.55957 10.2173 11.159 8.11239 11.159 5.62562C11.1681 2.51465 8.66275 0 5.58413 0Z" fill="#541616" fill-opacity="0.5"/>
</g>
<defs>
<clipPath id="clip0_190_5676">
<rect width="11.159" height="11.159" fill="white"/>
</clipPath>
</defs>
</svg>
