<svg width="9" height="12" viewBox="0 0 9 12" fill="none" xmlns="http://www.w3.org/2000/svg">
<path d="M0.557861 4.42072C0.557861 7.1278 2.92607 9.36644 3.9743 10.2247C4.12432 10.3476 4.20023 10.4097 4.31215 10.4412C4.39931 10.4658 4.52757 10.4658 4.61472 10.4412C4.72686 10.4097 4.80223 10.3481 4.95282 10.2248C6.00105 9.36653 8.36914 7.12805 8.36914 4.42097C8.36914 3.39651 7.95767 2.41388 7.22522 1.68948C6.49276 0.965072 5.49941 0.558105 4.46357 0.558105C3.42772 0.558105 2.43426 0.965133 1.7018 1.68954C0.969349 2.41394 0.557861 3.39626 0.557861 4.42072Z" stroke="#541616" stroke-width="1.1159" stroke-linecap="round" stroke-linejoin="round"/>
<path d="M3.34762 3.90581C3.34762 4.52211 3.84723 5.02172 4.46352 5.02172C5.07982 5.02172 5.57942 4.52211 5.57942 3.90581C5.57942 3.28952 5.07982 2.78991 4.46352 2.78991C3.84723 2.78991 3.34762 3.28952 3.34762 3.90581Z" stroke="#541616" stroke-width="1.1159" stroke-linecap="round" stroke-linejoin="round"/>
</svg>
