<svg width="14" height="12" viewBox="0 0 14 12" fill="none" xmlns="http://www.w3.org/2000/svg">
<path d="M11.3649 9.89485L8.32086 6.85081C8.90353 6.18101 9.25749 5.30973 9.25749 4.35677C9.25749 2.24936 7.55305 0.544922 5.44564 0.544922C3.33823 0.544922 1.63379 2.24936 1.63379 4.35677C1.63379 6.46418 3.33823 8.16862 5.44564 8.16862C6.3986 8.16862 7.26988 7.81467 7.93968 7.23744L10.9837 10.2815L11.3649 9.89485ZM5.44564 7.62407C3.64318 7.62407 2.17834 6.15923 2.17834 4.35677C2.17834 2.55431 3.64318 1.08947 5.44564 1.08947C7.2481 1.08947 8.71294 2.55431 8.71294 4.35677C8.71294 6.15923 7.2481 7.62407 5.44564 7.62407Z" fill="#AAAAAA"/>
</svg>
