<svg width="84" height="75" viewBox="0 0 84 75" fill="none" xmlns="http://www.w3.org/2000/svg">
<path d="M34.365 5.5418H18.8141C11.7609 5.5418 6.04312 10.7163 6.04312 17.0994V53.1211C6.04312 59.5042 11.7609 64.6787 18.8141 64.6787H41.6972C43.366 64.6787 44.7188 65.9029 44.7188 67.4131C44.7188 68.9233 43.366 70.1476 41.6972 70.1476H18.8141C8.4326 70.1275 0.0222024 62.5162 4.31953e-05 53.1211V17.0994C-0.010653 12.574 1.96553 8.23014 5.49387 5.02338C9.0222 1.81662 13.8136 0.00965926 18.8141 0H34.365C40.2167 0 44.9605 4.29304 44.9605 9.58878C44.9824 11.8559 47.0078 13.6889 49.513 13.7087H65.0638C75.4453 13.7287 83.8557 21.34 83.8779 30.7351C83.901 32.2781 82.5602 33.5562 80.8564 33.6154C80.0663 33.6452 79.2971 33.3819 78.7267 32.8863C78.1563 32.3907 77.8341 31.7059 77.8348 30.9903C77.8886 27.8869 76.5695 24.8927 74.171 22.6741C71.7724 20.4555 68.4935 19.1966 65.0638 19.1776H49.513C43.6612 19.1776 38.9174 14.8845 38.9174 9.58878C38.8524 7.3502 36.8394 5.56067 34.365 5.5418Z" fill="#F1F1F1"/>
<path d="M72.8392 52.0273C73.4111 52.5853 74.214 52.9024 75.055 52.9023C75.8242 52.9001 76.5618 52.6252 77.1097 52.1367L83.0722 47.0324C83.6653 46.5107 84 45.7939 84 45.0454C84 44.2968 83.6653 43.5801 83.0722 43.0583L77.0694 37.9541C75.8241 37.1763 74.1351 37.352 73.1174 38.3652C72.0996 39.3784 72.0668 40.9166 73.0407 41.9646L73.4838 42.3292H66.4738C62.5631 42.1794 58.7555 43.4867 55.9387 45.9464C53.1218 48.406 51.542 51.8029 51.5676 55.3451C51.5676 56.8553 52.9204 58.0796 54.5891 58.0796C56.2579 58.0796 57.6107 56.8553 57.6107 55.3451C57.5171 53.234 58.4399 51.1899 60.1402 49.7421C61.8405 48.2943 64.1511 47.5851 66.4738 47.798H73.4032L72.9601 48.1626C71.7478 49.1998 71.6937 50.9298 72.8392 52.0273Z" fill="#F1F1F1"/>
<path d="M80.9772 54.4701C79.3085 54.4701 77.9557 55.6943 77.9557 57.2045C78.0493 59.3156 77.1265 61.3597 75.4262 62.8075C73.7259 64.2553 71.4152 64.9646 69.0925 64.7516H62.0825L62.5257 64.3505C63.5325 63.7591 64.0571 62.6844 63.862 61.6126C63.667 60.5407 62.7893 59.675 61.6261 59.407C60.4629 59.139 59.2346 59.5195 58.497 60.3765L52.5345 65.4808C51.9413 66.0025 51.6067 66.7192 51.6067 67.4678C51.6067 68.2164 51.9413 68.9331 52.5345 69.4548L58.5373 74.5591C59.7748 75.286 61.4114 75.0979 62.4088 74.114C63.4062 73.1302 63.4726 71.6384 62.566 70.5851L62.1228 70.2205H69.0119C72.9195 70.3597 76.7204 69.0489 79.5346 66.5915C82.3488 64.1342 83.9322 60.7435 83.9182 57.2045C83.9289 56.489 83.6251 55.7988 83.0736 55.286C82.522 54.7732 81.7679 54.4797 80.9772 54.4701Z" fill="#F1F1F1"/>
</svg>
