<svg width="100" height="99" viewBox="0 0 100 99" fill="none" xmlns="http://www.w3.org/2000/svg">
<path fill-rule="evenodd" clip-rule="evenodd" d="M82.3748 21.4089L57.7915 7.92012C52.961 5.19785 47.0387 5.19785 42.2082 7.92012L17.6248 21.4089C12.501 24.1983 9.31016 29.5212 9.2915 35.3101V61.5039C9.30622 63.9623 9.87565 66.3863 10.9582 68.5989V68.8051C8.58449 73.8352 9.63254 79.7972 13.5832 83.7376L22.8748 92.4826C24.8984 94.4178 27.603 95.4977 30.4165 95.4939C33.2073 95.4855 35.8897 94.4232 37.9165 92.5239L41.7915 88.8526C46.6286 91.5503 52.5377 91.5503 57.3748 88.8526L81.9582 75.3639C87.082 72.5744 90.2728 67.2516 90.2915 61.4626V35.3101C90.3579 29.6071 87.3381 24.3045 82.3748 21.4089ZM37.8748 84.5626L34.0415 88.1926C32.15 90.0107 29.1413 90.0107 27.2498 88.1926L18.0832 79.5301C16.0378 77.4352 15.4463 74.337 16.5782 71.6476C17.7101 68.9582 20.3488 67.1924 23.2915 67.1551C25.2434 67.1719 27.1118 67.9414 28.4998 69.3001L30.6665 71.4451L32.7915 69.3001C34.1795 67.9414 36.0479 67.1719 37.9998 67.1551C40.9426 67.1924 43.5812 68.9582 44.7131 71.6476C45.8451 74.337 45.2535 77.4352 43.2082 79.5301L37.8748 84.5626ZM79.1665 70.1251C82.3819 68.4286 84.3861 65.111 84.3748 61.5039L84.2082 35.3101C84.2069 31.7825 82.2781 28.5316 79.1665 26.8126L54.9165 13.3239C51.9683 11.6771 48.3647 11.6771 45.4165 13.3239L20.8332 26.8126C17.6894 28.51 15.7262 31.7651 15.7082 35.3101V61.4626C15.6469 62.0799 15.6469 62.7016 15.7082 63.3189C20.2064 60.3779 26.0433 60.3779 30.5415 63.3189C36.319 59.3872 44.1826 60.5392 48.5622 65.959C52.9418 71.3787 52.3509 79.2268 47.2082 83.9439L46.8332 84.3151C49.4022 85.1615 52.2116 84.9073 54.5832 83.6139L79.1665 70.1251Z" fill="#F1F1F1"/>
<path d="M70.4165 31.5151L52.0415 41.6214C50.7523 42.3582 49.164 42.3582 47.8748 41.6214L29.5832 31.5151C28.5709 30.9772 27.3457 31.0148 26.369 31.6137C25.3923 32.2126 24.8126 33.2819 24.8482 34.4187C24.8838 35.5555 25.5293 36.5872 26.5415 37.1251L44.9165 47.2726C45.5443 47.5804 46.2 47.829 46.8748 48.0151V57.5851C46.8748 59.2938 48.2739 60.6789 49.9998 60.6789C51.7257 60.6789 53.1248 59.2938 53.1248 57.5851V47.8089C53.8071 47.6265 54.4646 47.3633 55.0832 47.0251L73.4582 37.1251C74.4585 36.6003 75.0939 35.5808 75.1191 34.4603C75.1443 33.3397 74.5553 32.2933 73.5795 31.725C72.6036 31.1566 71.3936 31.1553 70.4165 31.7214V31.5151Z" fill="#F1F1F1"/>
</svg>
