<svg width="19" height="19" viewBox="0 0 19 19" fill="none" xmlns="http://www.w3.org/2000/svg">
<path fill-rule="evenodd" clip-rule="evenodd" d="M3.75 4.6875C2.71447 4.6875 1.875 5.52697 1.875 6.5625V14.0625C1.875 15.098 2.71447 15.9375 3.75 15.9375H15C16.0355 15.9375 16.875 15.098 16.875 14.0625V6.5625C16.875 5.52697 16.0355 4.6875 15 4.6875H13.5133C13.2647 4.6875 13.0262 4.58873 12.8504 4.41291L11.7992 3.36167C11.4475 3.01004 10.9706 2.8125 10.4733 2.8125H8.27665C7.77937 2.8125 7.30246 3.01004 6.95083 3.36167L5.89959 4.41291C5.72377 4.58873 5.48532 4.6875 5.23667 4.6875H3.75ZM9.375 13.125C10.9283 13.125 12.1875 11.8658 12.1875 10.3125C12.1875 8.7592 10.9283 7.5 9.375 7.5C7.8217 7.5 6.5625 8.7592 6.5625 10.3125C6.5625 11.8658 7.8217 13.125 9.375 13.125Z" fill="black"/>
</svg>
