<svg width="77" height="78" viewBox="0 0 77 78" fill="none" xmlns="http://www.w3.org/2000/svg">
<mask id="mask0_143_1231" style="mask-type:alpha" maskUnits="userSpaceOnUse" x="9" y="9" width="59" height="60">
<path d="M9.625 38.625C9.625 29.4199 9.625 24.8173 11.1861 21.2078C13.1055 16.7698 16.6448 13.2305 21.0828 11.3111C24.6923 9.75 29.2949 9.75 38.5 9.75C47.7051 9.75 52.3077 9.75 55.9172 11.3111C60.3552 13.2305 63.8945 16.7698 65.8139 21.2078C67.375 24.8173 67.375 29.4199 67.375 38.625V39.375C67.375 48.5801 67.375 53.1827 65.8139 56.7922C63.8945 61.2302 60.3552 64.7695 55.9172 66.6889C52.3077 68.25 47.7051 68.25 38.5 68.25C29.2949 68.25 24.6923 68.25 21.0828 66.6889C16.6448 64.7695 13.1055 61.2302 11.1861 56.7922C9.625 53.1827 9.625 48.5801 9.625 39.375V38.625Z" fill="#273B4A"/>
</mask>
<g mask="url(#mask0_143_1231)">
<path d="M17.3056 40.9697L16.7693 41.5129L16.7693 41.5129C15.537 42.7613 14.9208 43.3855 14.3841 44.0353C11.7248 47.2555 10.2005 51.2622 10.0471 55.4358C10.0161 56.278 10.0616 57.1539 10.1527 58.9057L11.2292 79.625H67.375V64.0197C67.375 62.0524 67.375 61.0687 67.2812 60.1282C66.8801 56.107 65.2074 52.3185 62.5061 49.313C61.8742 48.61 61.1473 47.9473 59.6935 46.6219L59.6935 46.6219L58.927 45.923C58.1375 45.2033 57.7428 44.8434 57.3774 44.5696C53.8519 41.9273 48.9722 42.0557 45.5906 44.8797C45.24 45.1724 44.8648 45.5526 44.1143 46.3128C43.5598 46.8745 43.2826 47.1553 43.0529 47.3368C40.7797 49.133 37.4418 48.4933 35.9938 45.984C35.8475 45.7303 35.6834 45.3426 35.3553 44.5671C34.5303 42.617 34.1178 41.642 33.7237 41.009C30.7957 36.3064 24.4815 35.0963 20.0224 38.3832C19.4222 38.8256 18.7167 39.5403 17.3056 40.9697L17.3056 40.9697Z" fill="#AAAAAA" stroke="#7D7D7D" stroke-width="4.75"/>
</g>
<path d="M9.625 38.625C9.625 29.4199 9.625 24.8173 11.1861 21.2078C13.1055 16.7698 16.6448 13.2305 21.0828 11.3111C24.6923 9.75 29.2949 9.75 38.5 9.75C47.7051 9.75 52.3077 9.75 55.9172 11.3111C60.3552 13.2305 63.8945 16.7698 65.8139 21.2078C67.375 24.8173 67.375 29.4199 67.375 38.625V39.375C67.375 48.5801 67.375 53.1827 65.8139 56.7922C63.8945 61.2302 60.3552 64.7695 55.9172 66.6889C52.3077 68.25 47.7051 68.25 38.5 68.25C29.2949 68.25 24.6923 68.25 21.0828 66.6889C16.6448 64.7695 13.1055 61.2302 11.1861 56.7922C9.625 53.1827 9.625 48.5801 9.625 39.375V38.625Z" stroke="#7D7D7D" stroke-width="5.7"/>
<ellipse cx="52.9375" cy="24.375" rx="4.8125" ry="4.875" fill="#7D7D7D"/>
</svg>
