<svg width="17" height="17" viewBox="0 0 17 17" fill="none" xmlns="http://www.w3.org/2000/svg">
<path d="M7.03889 9.04343L10.8754 5.20689M14.8 2.86552L11.5616 13.3904C11.2714 14.3336 11.1262 14.8055 10.8758 14.9619C10.6587 15.0975 10.3899 15.1202 10.1535 15.0221C9.88079 14.9089 9.65949 14.4671 9.21802 13.5842L7.16684 9.48181C7.09679 9.3417 7.06172 9.27193 7.01493 9.21122C6.9734 9.15735 6.92548 9.10882 6.87161 9.06729C6.81228 9.02156 6.74368 8.98726 6.60982 8.92034L2.49802 6.86444C1.61507 6.42297 1.17356 6.20203 1.06042 5.92936C0.962301 5.6929 0.984677 5.42383 1.12033 5.20672C1.27676 4.95636 1.74856 4.81092 2.69207 4.52061L13.217 1.28219C13.9587 1.05395 14.3297 0.939927 14.5803 1.03191C14.7985 1.11202 14.9706 1.2839 15.0507 1.50214C15.1426 1.75256 15.0285 2.1234 14.8005 2.86443L14.8 2.86552Z" stroke="#541616" stroke-width="2" stroke-linecap="round" stroke-linejoin="round"/>
</svg>
