<svg width="15" height="15" viewBox="0 0 15 15" fill="none" xmlns="http://www.w3.org/2000/svg">
<path d="M10.3557 12.6679C9.43286 13.2001 8.36216 13.5046 7.22034 13.5046C3.74935 13.5046 0.935301 10.6909 0.935301 7.21987C0.935301 3.74886 3.7491 0.935059 7.22009 0.935059C10.6911 0.935059 13.5049 3.74886 13.5049 7.21987C13.5049 8.36169 13.2004 9.43239 12.6682 10.3552L12.6661 10.3588C12.6149 10.4476 12.5891 10.4923 12.5774 10.5347C12.5663 10.5746 12.5633 10.6104 12.5661 10.6518C12.5691 10.6961 12.5841 10.7422 12.6148 10.8342L13.1516 12.4448L13.1523 12.4469C13.2656 12.7868 13.3222 12.9567 13.2819 13.0699C13.2467 13.1686 13.1685 13.2465 13.0698 13.2817C12.9568 13.322 12.7877 13.2656 12.4494 13.1528L12.4451 13.1513L10.8345 12.6144C10.7428 12.5838 10.6962 12.5683 10.6519 12.5653C10.6106 12.5625 10.5749 12.5662 10.535 12.5772C10.4926 12.589 10.4478 12.6148 10.3586 12.6663L10.3557 12.6679Z" stroke="#541616" stroke-width="1.86971" stroke-linecap="round" stroke-linejoin="round"/>
</svg>
