<svg width="40" height="40" viewBox="0 0 40 40" fill="none" xmlns="http://www.w3.org/2000/svg">
<path d="M10.5745 1.36426H8.73293C6.15381 1.36426 4.86329 1.36426 3.8782 1.86619C3.01168 2.3077 2.3077 3.01168 1.86619 3.8782C1.36426 4.86329 1.36426 6.15381 1.36426 8.73293V30.8376C1.36426 33.4167 1.36426 34.7056 1.86619 35.6907C2.3077 36.5572 3.01168 37.2624 3.8782 37.7039C4.86233 38.2054 6.15129 38.2054 8.72537 38.2054H10.5745M10.5745 1.36426H30.8376C33.4167 1.36426 34.7045 1.36426 35.6896 1.86619C36.5561 2.3077 37.2624 3.01168 37.7039 3.8782C38.2054 4.86233 38.2054 6.15129 38.2054 8.72537V30.8454C38.2054 33.4195 38.2054 34.7066 37.7039 35.6907C37.2624 36.5572 36.5561 37.2624 35.6896 37.7039C34.7054 38.2054 33.4183 38.2054 30.8443 38.2054H10.5745M10.5745 1.36426V38.2054M19.7848 17.4822H28.9951M19.7848 10.5745H28.9951" stroke="white" stroke-width="2.72897" stroke-linecap="round" stroke-linejoin="round"/>
</svg>
