<svg width="16" height="13" viewBox="0 0 16 13" fill="none" xmlns="http://www.w3.org/2000/svg">
<path d="M6.58005 6.97673L10.1667 4.09498M13.8356 2.33631L10.8081 10.2419C10.5368 10.9503 10.401 11.3048 10.167 11.4222C9.96407 11.5241 9.71277 11.5412 9.49171 11.4675C9.23681 11.3825 9.02992 11.0506 8.61721 10.3874L6.69967 7.30601C6.63417 7.20077 6.60139 7.14836 6.55765 7.10276C6.51883 7.0623 6.47402 7.02584 6.42366 6.99465C6.3682 6.9603 6.30407 6.93454 6.17893 6.88427L2.335 5.34002C1.50957 5.00842 1.09682 4.84246 0.991053 4.63766C0.899327 4.46004 0.920246 4.25794 1.04707 4.09485C1.1933 3.90681 1.63436 3.79756 2.51641 3.5795L12.3556 1.14702C13.0491 0.975585 13.3959 0.889936 13.6302 0.959025C13.8342 1.0192 13.995 1.14831 14.0699 1.31223C14.1558 1.50033 14.0492 1.77888 13.836 2.33549L13.8356 2.33631Z" stroke="#541616" stroke-width="1.86971" stroke-linecap="round" stroke-linejoin="round"/>
</svg>
