<svg width="14" height="14" viewBox="0 0 14 14" fill="none" xmlns="http://www.w3.org/2000/svg">
<path d="M3.62198 0.467285H2.99129C2.10803 0.467285 1.66607 0.467285 1.32871 0.639179C1.03196 0.790381 0.79087 1.03147 0.639667 1.32822C0.467773 1.66558 0.467773 2.10754 0.467773 2.9908V10.5609C0.467773 11.4442 0.467773 11.8856 0.639667 12.2229C0.79087 12.5197 1.03196 12.7612 1.32871 12.9124C1.66574 13.0841 2.10717 13.0841 2.9887 13.0841H3.62198M3.62198 0.467285H10.5614C11.4446 0.467285 11.8857 0.467285 12.223 0.639179C12.5198 0.790381 12.7617 1.03147 12.9129 1.32822C13.0846 1.66525 13.0846 2.10668 13.0846 2.98821V10.5636C13.0846 11.4451 13.0846 11.8859 12.9129 12.2229C12.7617 12.5197 12.5198 12.7612 12.223 12.9124C11.886 13.0841 11.4452 13.0841 10.5637 13.0841H3.62198M3.62198 0.467285V13.0841M6.77618 5.98714H9.93039M6.77618 3.62149H9.93039" stroke="white" stroke-width="0.934579" stroke-linecap="round" stroke-linejoin="round"/>
</svg>
