<svg width="14" height="14" viewBox="0 0 14 14" fill="none" xmlns="http://www.w3.org/2000/svg">
<path d="M3.62617 0.467773H2.99464C2.11021 0.467773 1.66766 0.467773 1.32985 0.639896C1.03271 0.791299 0.791299 1.03271 0.639896 1.32985C0.467773 1.66766 0.467773 2.11021 0.467773 2.99464V10.5748C0.467773 11.4592 0.467773 11.9012 0.639896 12.239C0.791299 12.5362 1.03271 12.778 1.32985 12.9294C1.66733 13.1014 2.10934 13.1014 2.99205 13.1014H3.62617M3.62617 0.467773H10.5748C11.4592 0.467773 11.9008 0.467773 12.2386 0.639896C12.5358 0.791299 12.778 1.03271 12.9294 1.32985C13.1014 1.66733 13.1014 2.10934 13.1014 2.99205V10.5775C13.1014 11.4602 13.1014 11.9015 12.9294 12.239C12.778 12.5362 12.5358 12.778 12.2386 12.9294C11.9012 13.1014 11.4598 13.1014 10.5771 13.1014H3.62617M3.62617 0.467773V13.1014M6.78456 5.99496H9.94296M6.78456 3.62617H9.94296" stroke="white" stroke-width="0.935821" stroke-linecap="round" stroke-linejoin="round"/>
</svg>
