<svg width="40" height="40" viewBox="0 0 40 40" fill="none" xmlns="http://www.w3.org/2000/svg">
<path d="M10.5592 1.3623H8.72025C6.14489 1.3623 4.85624 1.3623 3.87258 1.8635C3.00733 2.30437 2.30437 3.00733 1.8635 3.87258C1.3623 4.85624 1.3623 6.14489 1.3623 8.72025V30.7928C1.3623 33.3681 1.3623 34.6551 1.8635 35.6388C2.30437 36.504 3.00733 37.2082 3.87258 37.6491C4.85528 38.1498 6.14237 38.1498 8.7127 38.1498H10.5592M10.5592 1.3623H30.7928C33.3681 1.3623 34.654 1.3623 35.6377 1.8635C36.5029 2.30437 37.2082 3.00733 37.6491 3.87258C38.1498 4.85528 38.1498 6.14237 38.1498 8.7127V30.8005C38.1498 33.3709 38.1498 34.6561 37.6491 35.6388C37.2082 36.504 36.5029 37.2082 35.6377 37.6491C34.655 38.1498 33.3697 38.1498 30.7994 38.1498H10.5592M10.5592 1.3623V38.1498M19.7561 17.4568H28.9529M19.7561 10.5592H28.9529" stroke="white" stroke-width="2.725" stroke-linecap="round" stroke-linejoin="round"/>
</svg>
