<svg width="156" height="174" viewBox="0 0 156 174" fill="none" xmlns="http://www.w3.org/2000/svg">
<g filter="url(#filter0_d_185_8476)">
<path d="M0 5C0 2.23858 2.23858 0 5 0H142C144.761 0 147 2.23858 147 5V161C147 163.761 144.761 166 142 166H5C2.23858 166 0 163.761 0 161V5Z" fill="#734A00"/>
<path d="M5 0.5H142C144.485 0.500002 146.5 2.51472 146.5 5V161C146.5 163.485 144.485 165.5 142 165.5H5C2.51472 165.5 0.5 163.485 0.5 161V5C0.500001 2.59234 2.39083 0.626322 4.76855 0.505859L5 0.5Z" stroke="#EEB31A"/>
</g>
<defs>
<filter id="filter0_d_185_8476" x="0" y="0" width="156" height="174" filterUnits="userSpaceOnUse" color-interpolation-filters="sRGB">
<feFlood flood-opacity="0" result="BackgroundImageFix"/>
<feColorMatrix in="SourceAlpha" type="matrix" values="0 0 0 0 0 0 0 0 0 0 0 0 0 0 0 0 0 0 127 0" result="hardAlpha"/>
<feOffset dx="5" dy="4"/>
<feGaussianBlur stdDeviation="2"/>
<feComposite in2="hardAlpha" operator="out"/>
<feColorMatrix type="matrix" values="0 0 0 0 0 0 0 0 0 0 0 0 0 0 0 0 0 0 0.25 0"/>
<feBlend mode="normal" in2="BackgroundImageFix" result="effect1_dropShadow_185_8476"/>
<feBlend mode="normal" in="SourceGraphic" in2="effect1_dropShadow_185_8476" result="shape"/>
</filter>
</defs>
</svg>
