<svg width="51" height="26" viewBox="0 0 51 26" fill="none" xmlns="http://www.w3.org/2000/svg">
<g filter="url(#filter0_d_185_9405)">
<path d="M24.2732 0.827312C24.3856 -0.275868 25.9927 -0.275868 26.1051 0.827312V0.827312C26.2004 1.7626 27.4712 1.9705 27.8595 1.11433L28.0045 0.794714C28.448 -0.183075 29.923 0.318428 29.6787 1.36392V1.36392C29.4688 2.26164 30.5964 2.84536 31.2082 2.15578L31.5964 1.7183C32.2771 0.951232 33.4777 1.83741 32.9452 2.71384V2.71384C32.4808 3.47814 33.3714 4.34337 34.122 3.85714L34.6529 3.51322C35.4762 2.97987 36.3492 4.11479 35.6225 4.77373V4.77373C34.9805 5.35586 35.5966 6.40001 36.4166 6.11952L36.891 5.95725C37.7902 5.64966 38.3359 6.92864 37.4916 7.36494V7.36494C36.7397 7.75348 37.0783 8.8945 37.9204 8.8101L48.9374 7.70597L47.4992 8.05642C44.8291 8.70702 45.0499 12.5743 47.7766 12.9169L49.3882 13.1194L38.3319 13.2573C37.4915 13.2677 37.2893 14.434 38.077 14.7269V14.7269C38.9599 15.055 38.5725 16.3788 37.652 16.1793L37.2769 16.098C36.4411 15.9168 35.9645 17.018 36.6686 17.5034V17.5034C37.4619 18.0502 36.7542 19.2677 35.8864 18.8489L35.358 18.5939C34.5655 18.2114 33.8103 19.178 34.373 19.8544V19.8544C35.0139 20.6247 33.9749 21.6509 33.2126 21.0005L32.7311 20.5897C32.0398 19.9999 31.0228 20.7377 31.369 21.5779V21.5779C31.7689 22.5488 30.4193 23.2602 29.8443 22.3816L29.5765 21.9724C29.0658 21.1919 27.8512 21.5972 27.9114 22.528V22.528C27.9821 23.6198 26.4175 23.8807 26.13 22.8251L26.0825 22.6504C25.8347 21.7403 24.5437 21.7403 24.2959 22.6504L24.2483 22.8251C23.9608 23.8807 22.3963 23.6198 22.4669 22.528V22.528C22.5272 21.5972 21.3126 21.1919 20.8018 21.9724L20.534 22.3816C19.959 23.2602 18.6094 22.5488 19.0094 21.5779V21.5779C19.3555 20.7377 18.3385 19.9999 17.6472 20.5897L17.1657 21.0005C16.4035 21.6509 15.3645 20.6247 16.0053 19.8544V19.8544C16.5681 19.178 15.8128 18.2114 15.0204 18.5939L14.4919 18.8489C13.6241 19.2677 12.9164 18.0502 13.7097 17.5034V17.5034C14.4139 17.018 13.9373 15.9168 13.1015 16.098L12.7263 16.1793C11.8058 16.3788 11.4184 15.055 12.3013 14.7269V14.7269C13.0891 14.434 12.8868 13.2677 12.0464 13.2573L0.990139 13.1194L2.60175 12.9169C5.32849 12.5743 5.54922 8.70702 2.87916 8.05642L1.44092 7.70597L12.458 8.8101C13.3001 8.8945 13.6386 7.75348 12.8868 7.36494V7.36494C12.0425 6.92864 12.5882 5.64966 13.4874 5.95725L13.9618 6.11952C14.7817 6.40001 15.3978 5.35586 14.7558 4.77373V4.77373C14.0291 4.11479 14.9021 2.97987 15.7254 3.51322L16.2563 3.85714C17.0069 4.34337 17.8975 3.47814 17.4332 2.71384V2.71384C16.9007 1.83741 18.1013 0.951233 18.7819 1.7183L19.1701 2.15578C19.782 2.84536 20.9095 2.26164 20.6997 1.36392V1.36392C20.4553 0.318428 21.9303 -0.183071 22.3738 0.794718L22.5188 1.11433C22.9072 1.9705 24.178 1.7626 24.2732 0.827312V0.827312Z" fill="#734A00"/>
</g>
<defs>
<filter id="filter0_d_185_9405" x="0.000210702" y="0" width="50.3785" height="25.4752" filterUnits="userSpaceOnUse" color-interpolation-filters="sRGB">
<feFlood flood-opacity="0" result="BackgroundImageFix"/>
<feColorMatrix in="SourceAlpha" type="matrix" values="0 0 0 0 0 0 0 0 0 0 0 0 0 0 0 0 0 0 127 0" result="hardAlpha"/>
<feOffset dy="0.990024"/>
<feGaussianBlur stdDeviation="0.495012"/>
<feComposite in2="hardAlpha" operator="out"/>
<feColorMatrix type="matrix" values="0 0 0 0 0 0 0 0 0 0 0 0 0 0 0 0 0 0 0.25 0"/>
<feBlend mode="normal" in2="BackgroundImageFix" result="effect1_dropShadow_185_9405"/>
<feBlend mode="normal" in="SourceGraphic" in2="effect1_dropShadow_185_9405" result="shape"/>
</filter>
</defs>
</svg>
