<svg width="62" height="32" viewBox="0 0 62 32" fill="none" xmlns="http://www.w3.org/2000/svg">
<g filter="url(#filter0_d_185_9402)">
<path d="M29.7603 1.01431C29.8981 -0.33825 31.8686 -0.33825 32.0063 1.01432V1.01432C32.1232 2.16103 33.6812 2.41593 34.1574 1.36622L34.3351 0.974351C34.8789 -0.224478 36.6873 0.39039 36.3877 1.67223V1.67223C36.1304 2.77288 37.5129 3.48856 38.2631 2.64309L38.739 2.10672C39.5735 1.16625 41.0455 2.25275 40.3927 3.32731V3.32731C39.8234 4.26439 40.9153 5.32521 41.8355 4.72907L42.4865 4.3074C43.4959 3.65349 44.5662 5.04497 43.6752 5.85287V5.85287C42.8881 6.56659 43.6435 7.84678 44.6488 7.50289L45.2305 7.30392C46.3329 6.92681 47.002 8.49491 45.9669 9.02984V9.02984C45.045 9.50621 45.4601 10.9052 46.4926 10.8017L60.0001 9.44797L58.2368 9.87763C54.9631 10.6753 55.2337 15.4168 58.5769 15.8368L60.5528 16.0851L46.9971 16.2542C45.9668 16.267 45.7188 17.697 46.6847 18.056V18.056C47.7671 18.4584 47.2921 20.0814 46.1636 19.8368L45.7036 19.7371C44.6789 19.515 44.0945 20.8651 44.9578 21.4602V21.4602C45.9305 22.1306 45.0628 23.6233 43.9988 23.1099L43.3509 22.7972C42.3793 22.3283 41.4534 23.5134 42.1433 24.3427V24.3427C42.929 25.2871 41.6551 26.5453 40.7206 25.7479L40.1302 25.2442C39.2827 24.5211 38.0358 25.4257 38.4601 26.4558V26.4558C38.9505 27.6462 37.2958 28.5184 36.5909 27.4412L36.2625 26.9394C35.6363 25.9825 34.1471 26.4794 34.221 27.6206V27.6206C34.3076 28.9592 32.3894 29.2792 32.0369 27.9849L31.9786 27.7708C31.6747 26.6549 30.0919 26.6549 29.7881 27.7708L29.7298 27.9849C29.3773 29.2792 27.4591 28.9592 27.5457 27.6206V27.6206C27.6195 26.4794 26.1304 25.9825 25.5042 26.9394L25.1758 27.4412C24.4708 28.5184 22.8162 27.6462 23.3066 26.4558V26.4558C23.7309 25.4257 22.484 24.5211 21.6365 25.2442L21.0461 25.7479C20.1116 26.5452 18.8377 25.2871 19.6234 24.3427V24.3427C20.3133 23.5134 19.3874 22.3283 18.4158 22.7972L17.7678 23.1099C16.7039 23.6233 15.8362 22.1306 16.8089 21.4602V21.4602C17.6722 20.8651 17.0878 19.515 16.0631 19.7371L15.6031 19.8368C14.4745 20.0814 13.9996 18.4584 15.082 18.056V18.056C16.0479 17.697 15.7999 16.267 14.7696 16.2542L1.21386 16.0851L3.18979 15.8368C6.53294 15.4168 6.80356 10.6753 3.52991 9.87763L1.76655 9.44797L15.2741 10.8017C16.3066 10.9052 16.7217 9.50621 15.7998 9.02984V9.02984C14.7647 8.49491 15.4338 6.92681 16.5362 7.30392L17.1179 7.50289C18.1232 7.84678 18.8785 6.56658 18.0914 5.85287V5.85287C17.2004 5.04497 18.2708 3.65348 19.2802 4.3074L19.9311 4.72907C20.8514 5.32521 21.9433 4.26439 21.374 3.32731V3.32731C20.7212 2.25275 22.1932 1.16625 23.0277 2.10672L23.5036 2.64309C24.2538 3.48857 25.6363 2.77288 25.379 1.67223V1.67223C25.0793 0.390389 26.8878 -0.22448 27.4316 0.974349L27.6093 1.36622C28.0855 2.41593 29.6435 2.16103 29.7603 1.01431V1.01431Z" fill="#7D7D7D"/>
</g>
<defs>
<filter id="filter0_d_185_9402" x="-0.000938535" y="0" width="61.7675" height="31.2343" filterUnits="userSpaceOnUse" color-interpolation-filters="sRGB">
<feFlood flood-opacity="0" result="BackgroundImageFix"/>
<feColorMatrix in="SourceAlpha" type="matrix" values="0 0 0 0 0 0 0 0 0 0 0 0 0 0 0 0 0 0 127 0" result="hardAlpha"/>
<feOffset dy="1.21383"/>
<feGaussianBlur stdDeviation="0.606915"/>
<feComposite in2="hardAlpha" operator="out"/>
<feColorMatrix type="matrix" values="0 0 0 0 0 0 0 0 0 0 0 0 0 0 0 0 0 0 0.25 0"/>
<feBlend mode="normal" in2="BackgroundImageFix" result="effect1_dropShadow_185_9402"/>
<feBlend mode="normal" in="SourceGraphic" in2="effect1_dropShadow_185_9402" result="shape"/>
</filter>
</defs>
</svg>
