<svg width="81" height="41" viewBox="0 0 81 41" fill="none" xmlns="http://www.w3.org/2000/svg">
<g filter="url(#filter0_d_185_9399)">
<path d="M38.8058 1.32279C38.9855 -0.440894 41.5549 -0.440895 41.7345 1.32279V1.32279C41.8869 2.81805 43.9185 3.15043 44.5394 1.78165L44.7711 1.27067C45.4802 -0.292542 47.8383 0.509212 47.4476 2.18067V2.18067C47.1122 3.61587 48.9148 4.54909 49.893 3.44663L50.5136 2.74723C51.6018 1.5209 53.5212 2.93765 52.6699 4.33882V4.33882C51.9276 5.56073 53.3514 6.94399 54.5513 6.16665L55.4001 5.61681C56.7164 4.76413 58.112 6.57856 56.9502 7.63203V7.63203C55.9239 8.56268 56.9088 10.232 58.2197 9.78358L58.9782 9.52414C60.4157 9.0324 61.2881 11.0771 59.9384 11.7746V11.7746C58.7364 12.3958 59.2776 14.22 60.6239 14.0851L78.2371 12.3199L75.9378 12.8801C71.6691 13.9203 72.022 20.103 76.3813 20.6507L78.9578 20.9744L61.2818 21.1949C59.9383 21.2116 59.6149 23.0762 60.8744 23.5443V23.5443C62.2858 24.069 61.6665 26.1854 60.1949 25.8664L59.5951 25.7364C58.2589 25.4468 57.4969 27.2073 58.6227 27.9832V27.9832C59.891 28.8574 58.7595 30.8039 57.3722 30.1344L56.5273 29.7267C55.2604 29.1152 54.053 30.6605 54.9527 31.7419V31.7419C55.9772 32.9734 54.3161 34.6139 53.0975 33.5742L52.3277 32.9174C51.2225 31.9745 49.5966 33.154 50.15 34.4973V34.4973C50.7894 36.0495 48.6318 37.1868 47.7125 35.7821L47.2844 35.1279C46.4678 33.8801 44.526 34.5281 44.6223 36.0162V36.0162C44.7353 37.7617 42.234 38.1788 41.7744 36.4911L41.6984 36.212C41.3021 34.7569 39.2383 34.7569 38.842 36.212L38.766 36.4911C38.3064 38.1788 35.8051 37.7617 35.9181 36.0162V36.0162C36.0144 34.5281 34.0726 33.8801 33.256 35.1279L32.8279 35.7822C31.9086 37.1868 29.751 36.0495 30.3904 34.4973V34.4973C30.9438 33.154 29.3179 31.9745 28.2127 32.9174L27.4429 33.5742C26.2243 34.6139 24.5632 32.9734 25.5877 31.7419V31.7419C26.4874 30.6605 25.28 29.1152 24.0131 29.7267L23.1682 30.1344C21.7809 30.8039 20.6494 28.8574 21.9177 27.9832V27.9832C23.0435 27.2073 22.2815 25.4468 20.9453 25.7364L20.3455 25.8664C18.8739 26.1854 18.2546 24.069 19.666 23.5443V23.5443C20.9255 23.0762 20.6021 21.2116 19.2586 21.1949L1.58259 20.9744L4.15911 20.6507C8.51842 20.103 8.87129 13.9203 4.60261 12.8801L2.30326 12.3199L19.9165 14.0851C21.2628 14.22 21.804 12.3958 20.602 11.7746V11.7746C19.2522 11.0771 20.1247 9.0324 21.5622 9.52414L22.3206 9.78357C23.6315 10.232 24.6165 8.56268 23.5901 7.63203V7.63203C22.4283 6.57856 23.824 4.76413 25.1403 5.61681L25.989 6.16665C27.189 6.94398 28.6128 5.56073 27.8705 4.33882V4.33882C27.0192 2.93765 28.9386 1.52091 30.0267 2.74723L30.6473 3.44664C31.6256 4.54909 33.4282 3.61587 33.0928 2.18067V2.18067C32.702 0.509211 35.0602 -0.292546 35.7693 1.27067L36.001 1.78165C36.6219 3.15043 38.6535 2.81805 38.8058 1.32279V1.32279Z" fill="#541616"/>
</g>
<defs>
<filter id="filter0_d_185_9399" x="-0.000744581" y="0" width="80.5406" height="40.7281" filterUnits="userSpaceOnUse" color-interpolation-filters="sRGB">
<feFlood flood-opacity="0" result="BackgroundImageFix"/>
<feColorMatrix in="SourceAlpha" type="matrix" values="0 0 0 0 0 0 0 0 0 0 0 0 0 0 0 0 0 0 127 0" result="hardAlpha"/>
<feOffset dy="1.58278"/>
<feGaussianBlur stdDeviation="0.791388"/>
<feComposite in2="hardAlpha" operator="out"/>
<feColorMatrix type="matrix" values="0 0 0 0 0 0 0 0 0 0 0 0 0 0 0 0 0 0 0.25 0"/>
<feBlend mode="normal" in2="BackgroundImageFix" result="effect1_dropShadow_185_9399"/>
<feBlend mode="normal" in="SourceGraphic" in2="effect1_dropShadow_185_9399" result="shape"/>
</filter>
</defs>
</svg>
