<svg width="82" height="71" viewBox="0 0 82 71" fill="none" xmlns="http://www.w3.org/2000/svg">
<path fill-rule="evenodd" clip-rule="evenodd" d="M26.2477 8.00906C29.16 3.07011 34.8327 -0.00904937 41.0018 0.000435195C47.2801 -0.0423228 53.0707 3.06847 56.0528 8.08607L79.9647 48.2832C82.8015 53.056 82.6648 58.832 79.605 63.4897C76.5451 68.1474 71.0131 71.0001 65.0409 71H16.9627C10.9727 71.0013 5.42622 68.1327 2.37129 63.4534C-0.683639 58.7742 -0.793839 52.9784 2.08138 48.2062L26.2477 8.00906ZM50.3292 10.8198C48.4901 7.69819 44.9002 5.75688 41.0018 5.77589C37.1608 5.80008 33.6373 7.71704 31.8017 10.7813L7.67779 50.9014C5.87596 53.8765 5.94124 57.4951 7.84941 60.4149C9.75759 63.3348 13.224 65.1203 16.9627 65.109H65.0409C68.7663 65.0884 72.2086 63.3 74.1164 60.394C76.0243 57.488 76.1198 53.8875 74.3683 50.9014L50.3292 10.8198Z" fill="#F1F1F1"/>
<path d="M41.0018 46.2045C39.2457 46.2045 37.8221 47.4974 37.8221 49.0922C37.8221 50.6871 39.2457 51.9799 41.0018 51.9799C41.8487 51.9904 42.6641 51.6895 43.263 51.1457C43.8618 50.6018 44.1931 49.8612 44.1816 49.0922C44.1817 48.3298 43.8453 47.5992 43.2478 47.0638C42.6502 46.5283 41.8412 46.2327 41.0018 46.243V46.2045Z" fill="#F1F1F1"/>
<path d="M41.0018 40.9296C39.2552 40.9088 37.8449 39.628 37.8221 38.0418V26.1059C37.8221 24.5111 39.2457 23.2182 41.0018 23.2182C42.758 23.2182 44.1816 24.5111 44.1816 26.1059V38.0418C44.1816 39.6367 42.758 40.9296 41.0018 40.9296Z" fill="#F1F1F1"/>
</svg>
