<svg width="71" height="84" viewBox="0 0 71 84" fill="none" xmlns="http://www.w3.org/2000/svg">
<path fill-rule="evenodd" clip-rule="evenodd" d="M69.5326 61.782L70.6101 66.57C71.6313 70.7095 70.6231 75.0593 67.8608 78.4314C65.0986 81.8035 60.871 83.8456 56.3326 84H14.6674C10.129 83.8456 5.90138 81.8035 3.13917 78.4314C0.376954 75.0593 -0.631269 70.7095 0.38986 66.57L1.46741 61.782C2.70675 55.3005 8.66284 50.5373 15.7 50.4001H55.3C62.3372 50.5373 68.2933 55.3005 69.5326 61.782ZM56.3326 77.658C58.6125 77.6333 60.7581 76.6452 62.1693 74.97V75.012C63.901 72.98 64.5757 70.3323 64.0102 67.788L62.9326 63C62.3347 59.4518 59.1371 56.7948 55.3 56.658H15.7001C11.8629 56.7948 8.66528 59.4518 8.06741 63L6.98986 67.788C6.43832 70.3189 7.11227 72.9483 8.83068 74.97C10.242 76.6452 12.3875 77.6333 14.6674 77.658H56.3326Z" fill="#F1F1F1"/>
<path fill-rule="evenodd" clip-rule="evenodd" d="M37.7448 42H33.255C23.3365 42 15.2959 34.4784 15.2959 25.2V14.112C15.2839 10.3659 16.8695 6.76994 19.7012 4.121C22.5329 1.47206 26.3769 -0.0111364 30.3816 6.2965e-05H40.6183C44.6229 -0.0111364 48.467 1.47206 51.2987 4.121C54.1304 6.76994 55.716 10.3659 55.704 14.112V25.2C55.704 34.4784 47.6634 42 37.7448 42ZM30.3816 6.30005C25.7694 6.30005 22.0306 9.7976 22.0306 14.112V25.2C22.0306 30.999 27.0559 35.7 33.255 35.7H37.7448C43.9439 35.7 48.9693 30.999 48.9693 25.2V14.112C48.9693 12.0402 48.0895 10.0532 46.5233 8.58813C44.9572 7.1231 42.8331 6.30005 40.6183 6.30005H30.3816Z" fill="#F1F1F1"/>
</svg>
