<svg width="114" height="114" viewBox="0 0 114 114" fill="none" xmlns="http://www.w3.org/2000/svg">
<mask id="mask0_101_4350" style="mask-type:alpha" maskUnits="userSpaceOnUse" x="14" y="14" width="86" height="86">
<path d="M14.25 52.25C14.25 34.3366 14.25 25.3799 19.815 19.815C25.3799 14.25 34.3366 14.25 52.25 14.25H61.75C79.6634 14.25 88.6201 14.25 94.185 19.815C99.75 25.3799 99.75 34.3366 99.75 52.25V61.75C99.75 79.6634 99.75 88.6201 94.185 94.185C88.6201 99.75 79.6634 99.75 61.75 99.75H52.25C34.3366 99.75 25.3799 99.75 19.815 94.185C14.25 88.6201 14.25 79.6634 14.25 61.75V52.25Z" fill="#273B4A"/>
</mask>
<g mask="url(#mask0_101_4350)">
<path d="M25.697 59.803L24.9714 60.5286C20.3132 65.1868 17.9841 67.5159 16.5901 70.3753C16.1056 71.3689 15.7088 72.403 15.4042 73.4656C14.5276 76.5235 14.7007 79.8128 15.0469 86.3914L16.625 116.375H99.75V93.8472C99.75 86.9529 99.75 83.5058 98.6168 80.3733C98.307 79.5168 97.9359 78.6838 97.5066 77.8805C95.9363 74.9427 93.3741 72.6367 88.2496 68.0246L87.2305 67.1074C82.9741 63.2767 80.8459 61.3613 78.4119 60.8185C76.8855 60.4781 75.2986 60.5199 73.7921 60.94C71.3901 61.6099 69.3655 63.6345 65.3163 67.6837C62.3126 70.6874 60.8108 72.1892 59.1969 72.3929C58.1965 72.5191 57.1818 72.3237 56.2998 71.8349C54.8771 71.0465 54.0276 69.0644 52.3287 65.1004C48.7155 56.6694 46.9088 52.4539 43.8029 50.8969C42.2393 50.113 40.4896 49.7761 38.7467 49.9232C35.2847 50.2153 32.0888 53.4112 25.697 59.803Z" fill="#AAAAAA" stroke="#7D7D7D" stroke-width="4.75"/>
</g>
<path d="M14.25 52.25C14.25 34.3366 14.25 25.3799 19.815 19.815C25.3799 14.25 34.3366 14.25 52.25 14.25H61.75C79.6634 14.25 88.6201 14.25 94.185 19.815C99.75 25.3799 99.75 34.3366 99.75 52.25V61.75C99.75 79.6634 99.75 88.6201 94.185 94.185C88.6201 99.75 79.6634 99.75 61.75 99.75H52.25C34.3366 99.75 25.3799 99.75 19.815 94.185C14.25 88.6201 14.25 79.6634 14.25 61.75V52.25Z" stroke="#7D7D7D" stroke-width="5.7"/>
<circle cx="78.375" cy="35.625" r="7.125" fill="#7D7D7D"/>
</svg>
