<svg width="16" height="16" viewBox="0 0 16 16" fill="none" xmlns="http://www.w3.org/2000/svg">
<path d="M6.00016 3.33333H4.66683C4.31321 3.33333 3.97407 3.47381 3.72402 3.72386C3.47397 3.97391 3.3335 4.31304 3.3335 4.66667V12.6667C3.3335 13.0203 3.47397 13.3594 3.72402 13.6095C3.97407 13.8595 4.31321 14 4.66683 14H11.3335C11.6871 14 12.0263 13.8595 12.2763 13.6095C12.5264 13.3594 12.6668 13.0203 12.6668 12.6667V4.66667C12.6668 4.31304 12.5264 3.97391 12.2763 3.72386C12.0263 3.47381 11.6871 3.33333 11.3335 3.33333H10.0002M6.00016 3.33333C6.00016 2.97971 6.14064 2.64057 6.39069 2.39052C6.64074 2.14048 6.97987 2 7.3335 2H8.66683C9.02045 2 9.35959 2.14048 9.60964 2.39052C9.85969 2.64057 10.0002 2.97971 10.0002 3.33333M6.00016 3.33333C6.00016 3.68696 6.14064 4.02609 6.39069 4.27614C6.64074 4.52619 6.97987 4.66667 7.3335 4.66667H8.66683C9.02045 4.66667 9.35959 4.52619 9.60964 4.27614C9.85969 4.02609 10.0002 3.68696 10.0002 3.33333M6.00016 11.3333V8.66667M8.00016 11.3333V10.6667M10.0002 11.3333V10" stroke="#541616" stroke-width="1.25" stroke-linecap="round" stroke-linejoin="round"/>
</svg>
