<svg width="33" height="33" viewBox="0 0 33 33" fill="none" xmlns="http://www.w3.org/2000/svg">
<g opacity="0.52">
<path fill-rule="evenodd" clip-rule="evenodd" d="M27.2141 7.44521C28.3967 7.76292 29.3322 8.69842 29.6499 9.88102C30.2323 12.0344 30.25 16.5001 30.25 16.5001C30.25 16.5001 30.25 20.9834 29.6675 23.1191C29.3498 24.3018 28.4143 25.2372 27.2317 25.555C25.096 26.1374 16.5 26.1374 16.5 26.1374C16.5 26.1374 7.90404 26.1374 5.76829 25.555C4.58569 25.2372 3.65019 24.3018 3.33248 23.1191C2.75 20.9658 2.75 16.5001 2.75 16.5001C2.75 16.5001 2.75 12.0344 3.31483 9.89868C3.63254 8.71607 4.56804 7.78058 5.75064 7.46286C7.88639 6.88038 16.4823 6.86273 16.4823 6.86273C16.4823 6.86273 25.0783 6.86273 27.2141 7.44521ZM20.8774 16.5001L13.7465 20.6304V12.3698L20.8774 16.5001Z" fill="black"/>
</g>
</svg>
