<svg width="25" height="18" viewBox="0 0 25 18" fill="none" xmlns="http://www.w3.org/2000/svg">
<path d="M4.92249 0C2.37999 0 0.390007 0.578243 0.0387573 2.77762C-0.0737427 3.48187 0.173743 4.17488 0.742493 4.67551C1.02499 4.92413 1.32375 5.22001 1.71875 5.51926C2.71 6.27188 3.97375 7.11788 5.15625 7.875C8.41 9.95625 10.9787 11.25 12.5 11.25C14.0213 11.25 16.59 9.95625 19.8438 7.875C21.0275 7.11788 22.2912 6.27076 23.2812 5.51926C23.6763 5.22001 23.975 4.92526 24.2575 4.67551C24.8263 4.17488 25.0737 3.48187 24.9612 2.77762C24.61 0.578243 22.62 0 20.0775 0H4.92249ZM0 6.92551V13.5C0 15.9851 2.23875 18 5 18H20C22.7613 18 25 15.9851 25 13.5V6.92551C23.975 7.80188 22.83 8.70638 21.2112 9.73801C17.6662 11.997 14.4825 13.5 12.5 13.5C10.5175 13.5 7.33376 11.997 3.78876 9.73801C2.16876 8.70638 1.025 7.80188 0 6.92551Z" fill="white"/>
</svg>
