<svg width="23" height="24" viewBox="0 0 23 24" fill="none" xmlns="http://www.w3.org/2000/svg">
<path d="M8.49383 21.9662H14.1571C18.8764 21.9662 20.7642 19.9693 20.7642 14.977V8.98627C20.7642 3.99398 18.8764 1.99707 14.1571 1.99707H8.49383C3.77446 1.99707 1.88672 3.99398 1.88672 8.98627V14.977C1.88672 19.9693 3.77446 21.9662 8.49383 21.9662Z" stroke="#541616" stroke-width="2" stroke-linecap="round" stroke-linejoin="round"/>
<path d="M8.49517 9.98406C9.53774 9.98406 10.3829 9.09001 10.3829 7.98715C10.3829 6.88428 9.53774 5.99023 8.49517 5.99023C7.45259 5.99023 6.60742 6.88428 6.60742 7.98715C6.60742 9.09001 7.45259 9.98406 8.49517 9.98406Z" stroke="#541616" stroke-width="2" stroke-linecap="round" stroke-linejoin="round"/>
<path d="M2.51953 18.9203L7.17282 15.6154C7.91848 15.0862 8.9945 15.1461 9.66464 15.7552L9.97612 16.0447C10.7123 16.7137 11.9016 16.7137 12.6378 16.0447L16.5644 12.4802C17.3006 11.8113 18.4899 11.8113 19.2261 12.4802L20.7646 13.8781" stroke="#541616" stroke-width="2" stroke-linecap="round" stroke-linejoin="round"/>
</svg>
